<?xml version="1.0" standalone="no"?>
<!DOCTYPE svg PUBLIC "-//W3C//DTD SVG 20010904//EN"
 "http://www.w3.org/TR/2001/REC-SVG-20010904/DTD/svg10.dtd">
<svg version="1.0" xmlns="http://www.w3.org/2000/svg"
 width="1000.000000pt" height="935.000000pt" viewBox="0 0 1000.000000 935.000000"
 preserveAspectRatio="xMidYMid meet">

<g transform="translate(0.000000,935.000000) scale(0.100000,-0.100000)"
fill="#FFFFFF" stroke="none">
<path d="M3312 8988 c-7 -7 -12 -38 -12 -75 l0 -63 80 0 81 0 -3 73 -3 72 -65
3 c-42 2 -70 -2 -78 -10z"/>
<path d="M4532 8988 c-7 -7 -12 -38 -12 -75 l0 -63 80 0 81 0 -3 73 -3 72 -65
3 c-42 2 -70 -2 -78 -10z"/>
<path d="M5752 8988 c-7 -7 -12 -38 -12 -75 l0 -63 80 0 81 0 -3 73 -3 72 -65
3 c-42 2 -70 -2 -78 -10z"/>
<path d="M3299 8813 c-8 -9 -33 -25 -57 -35 -77 -34 -50 -43 141 -46 166 -2
177 -1 177 16 0 11 -12 22 -34 30 -18 7 -41 21 -51 32 -24 27 -155 29 -176 3z"/>
<path d="M4516 8814 c-3 -8 -26 -24 -51 -35 -80 -35 -55 -44 138 -47 166 -2
177 -1 177 16 0 11 -12 22 -34 30 -18 7 -41 21 -51 32 -15 17 -31 20 -95 20
-61 0 -79 -3 -84 -16z"/>
<path d="M5739 8813 c-8 -9 -33 -25 -57 -35 -77 -34 -50 -43 141 -46 166 -2
177 -1 177 16 0 11 -12 22 -34 30 -18 7 -41 21 -51 32 -24 27 -155 29 -176 3z"/>
<path d="M3281 8690 c-19 -16 -43 -30 -55 -32 -13 -2 -21 -10 -21 -23 0 -19 7
-20 180 -20 173 0 180 1 180 20 0 14 -8 21 -26 23 -15 2 -39 16 -55 33 -26 27
-33 29 -98 29 -64 -1 -75 -4 -105 -30z"/>
<path d="M4501 8690 c-19 -16 -43 -30 -55 -32 -13 -2 -21 -10 -21 -23 0 -19 7
-20 180 -20 173 0 180 1 180 20 0 14 -8 21 -26 23 -15 2 -39 16 -55 33 -26 27
-33 29 -98 29 -64 -1 -75 -4 -105 -30z"/>
<path d="M5721 8690 c-19 -16 -43 -30 -55 -32 -13 -2 -21 -10 -21 -23 0 -19 7
-20 180 -20 173 0 180 1 180 20 0 14 -8 21 -26 23 -15 2 -39 16 -55 33 -26 27
-33 29 -98 29 -64 -1 -75 -4 -105 -30z"/>
<path d="M3290 8581 c-5 -11 -30 -27 -55 -36 -31 -12 -45 -23 -45 -37 0 -17
10 -18 192 -16 172 3 193 5 196 20 2 12 -8 20 -37 28 -22 6 -49 22 -59 35 -18
23 -27 25 -101 25 -69 0 -82 -3 -91 -19z"/>
<path d="M4510 8581 c-5 -11 -30 -27 -55 -36 -31 -12 -45 -23 -45 -36 0 -18
11 -19 189 -19 121 0 192 4 196 10 9 15 -14 40 -37 40 -11 0 -33 14 -50 30
-28 28 -34 30 -108 30 -68 0 -81 -3 -90 -19z"/>
<path d="M5730 8581 c-5 -11 -30 -27 -55 -36 -31 -12 -45 -23 -45 -36 0 -18
11 -19 189 -19 121 0 192 4 196 10 9 15 -14 40 -37 40 -11 0 -33 14 -50 30
-28 28 -34 30 -108 30 -68 0 -81 -3 -90 -19z"/>
<path d="M7289 8546 c-152 -32 -270 -98 -389 -216 -66 -65 -96 -105 -129 -169
-65 -125 -82 -188 -88 -326 -5 -102 -2 -133 16 -205 35 -139 89 -240 186 -348
26 -29 45 -58 42 -66 -3 -8 5 -24 19 -37 l24 -22 0 -329 0 -328 -116 0 c-105
0 -115 2 -112 18 3 14 16 18 66 20 l62 3 0 34 0 35 -405 0 -405 0 0 130 0 130
26 0 c19 0 25 4 22 18 -3 16 -25 17 -293 17 -268 0 -290 -1 -293 -17 -3 -14 3
-18 28 -18 l31 0 -3 -127 -3 -128 -367 -3 -368 -2 0 130 0 130 26 0 c19 0 25
4 22 18 -3 16 -25 17 -293 17 -268 0 -290 -1 -293 -17 -3 -14 3 -18 28 -18
l31 0 -3 -127 -3 -128 -367 -3 -368 -2 0 130 0 130 26 0 c19 0 25 4 22 18 -3
16 -25 17 -293 17 -268 0 -290 -1 -293 -17 -3 -14 3 -18 27 -18 l31 0 0 -130
0 -130 -200 0 -200 0 0 -35 0 -35 60 0 60 0 0 -65 0 -65 -47 0 c-55 0 -136
-34 -170 -71 -30 -33 -63 -108 -63 -145 0 -44 -16 -54 -87 -54 l-63 0 0 30 c0
23 -4 30 -20 30 -19 0 -20 -7 -20 -160 0 -153 1 -160 20 -160 16 0 20 7 20 30
0 29 2 30 43 30 139 0 227 43 271 132 14 28 26 66 26 84 0 40 22 64 61 64 l29
0 0 -315 0 -315 -35 0 -35 0 0 75 0 75 -145 0 -145 0 0 -725 0 -725 54 0 54 0
4 -74 c3 -63 7 -79 28 -102 36 -38 80 -54 155 -54 l65 0 0 -110 0 -110 1940 0
1940 0 0 234 0 234 73 4 c62 3 80 8 110 31 67 51 72 70 72 267 0 165 -1 177
-23 212 -34 55 -82 80 -163 86 l-69 5 0 268 0 269 74 0 c86 0 28 -35 506 299
160 111 284 191 297 191 19 0 23 -5 23 -30 0 -23 4 -30 20 -30 16 0 20 8 23
63 l3 62 2 -62 c2 -56 4 -63 22 -63 16 0 20 7 20 35 0 35 0 35 45 35 l45 0 0
49 c0 54 9 66 40 56 16 -5 20 -16 22 -58 l2 -52 3 47 c7 88 62 94 65 6 l1 -53
6 49 c11 89 67 87 74 -2 l3 -47 2 53 c3 88 58 82 65 -6 l3 -47 2 52 c2 42 6
53 22 58 31 10 40 -2 42 -58 l2 -52 3 47 c7 88 62 94 65 6 l2 -53 3 47 c7 89
63 91 74 2 l6 -49 1 53 c3 88 58 82 65 -6 l3 -47 2 52 c2 42 6 53 22 58 31 10
40 -2 42 -58 l2 -52 3 47 c7 87 63 95 63 8 0 -27 5 -50 10 -50 6 0 10 23 10
50 0 87 56 79 63 -8 l3 -47 2 53 c3 88 58 82 65 -6 l3 -47 2 46 c4 89 61 95
64 7 l2 -53 3 47 c7 87 63 95 63 8 0 -27 5 -50 10 -50 6 0 10 23 10 50 0 87
56 79 63 -8 l3 -47 2 53 c3 88 58 82 65 -6 l3 -47 2 46 c4 89 61 95 64 7 l2
-53 3 47 c7 87 63 95 63 8 0 -27 5 -50 10 -50 6 0 10 23 10 50 0 87 56 79 63
-8 l3 -47 2 53 c3 88 58 82 65 -6 l3 -47 2 46 c4 87 62 96 62 9 l0 -50 60 0
c50 0 61 3 70 21 15 28 16 120 1 147 l-12 22 -779 0 -779 0 15 28 c12 22 14
109 14 517 -1 481 0 490 20 507 11 9 20 27 20 40 0 14 12 35 26 49 33 31 105
132 133 186 45 91 72 211 73 328 0 131 -18 215 -71 330 -88 187 -247 327 -451
395 -113 38 -271 49 -381 26z m320 -82 c188 -49 349 -181 437 -359 117 -237
95 -491 -62 -712 -77 -108 -196 -193 -344 -245 -81 -29 -255 -36 -354 -14
-245 55 -445 248 -513 497 -28 101 -23 272 10 374 83 254 303 439 562 475 73
10 189 3 264 -16z m127 -1390 c23 9 25 -10 3 -38 -28 -36 -39 -33 -39 12 0 41
13 66 18 37 2 -9 10 -14 18 -11z m-326 -27 c52 -1 119 2 148 6 l52 8 0 -78 0
-78 -85 -85 -85 -85 -155 155 c-148 148 -180 189 -135 175 14 -4 20 -2 20 8 0
12 11 12 73 -5 43 -12 109 -20 167 -21z m342 -369 l-3 -251 -34 33 c-27 26
-32 37 -25 51 6 10 10 98 10 195 0 169 1 179 22 201 12 13 24 23 27 23 3 0 5
-113 3 -252z m-459 -90 c-79 -80 -91 -88 -125 -88 l-38 0 0 212 0 213 125
-125 125 -125 -87 -87z m317 90 l0 -113 -57 57 -58 58 55 55 c30 30 56 55 57
55 2 0 3 -51 3 -112z m-115 -118 l59 -60 -119 0 -119 0 59 60 c33 33 60 60 60
60 0 0 27 -27 60 -60z m162 -152 c13 -12 23 -25 23 -30 0 -4 -111 -8 -246 -8
-209 0 -245 2 -235 14 9 11 54 15 194 18 116 2 189 8 202 15 28 17 36 16 62
-9z m-687 -23 c0 -12 -19 -15 -115 -15 -96 0 -115 3 -115 15 0 12 19 15 115
15 96 0 115 -3 115 -15z m-3632 -97 c8 -8 12 -50 12 -125 l0 -113 1568 -2
1567 -3 31 -22 c54 -39 55 -47 52 -442 l-3 -363 -37 -34 -38 -34 -240 0 -240
0 0 -120 0 -120 365 0 365 0 0 -35 0 -35 61 0 c56 0 64 -3 95 -34 l34 -34 0
-157 c0 -95 -4 -165 -11 -178 -22 -43 -50 -57 -116 -57 l-63 0 0 230 0 230
-365 0 -365 0 0 -308 c0 -356 -4 -384 -71 -451 -53 -53 -114 -71 -236 -71
l-93 0 0 -45 0 -45 -760 0 -760 0 0 44 0 45 -297 3 c-279 3 -301 4 -344 24
-58 27 -116 85 -143 143 -20 44 -21 61 -24 509 l-3 462 -67 0 c-50 0 -76 5
-100 20 -60 37 -62 52 -62 432 0 325 1 345 20 376 31 50 75 72 148 72 l62 0 0
113 c0 110 7 137 35 137 6 0 16 -5 23 -12z m4302 -101 c0 -14 -10 -29 -29 -40
-26 -15 -63 -17 -314 -17 l-285 0 -53 -28 c-65 -34 -106 -93 -118 -171 -8 -51
-21 -71 -48 -71 -10 0 -13 40 -13 168 0 93 3 172 7 175 3 4 197 7 430 7 l423
0 0 -23z m-345 -256 c-25 -22 -498 -341 -507 -341 -5 0 -8 17 -6 37 3 36 4 37
60 48 36 7 72 23 95 41 44 35 93 124 93 169 0 51 12 55 149 55 70 0 121 -4
116 -9z m-4435 -916 l0 -485 -35 0 -35 0 0 485 0 485 35 0 35 0 0 -485z m0
-730 l0 -165 -75 0 c-67 0 -79 3 -100 25 -21 20 -25 34 -25 85 l0 60 65 0 65
0 0 80 0 80 35 0 35 0 0 -165z"/>
<path d="M7305 8460 c-214 -47 -378 -177 -470 -373 -115 -241 -70 -530 113
-729 74 -80 178 -147 283 -183 74 -25 98 -29 204 -28 102 0 132 4 200 26 113
37 196 90 280 178 132 138 192 300 183 493 -8 172 -68 305 -193 431 -81 80
-152 125 -257 162 -59 21 -95 27 -188 29 -63 2 -133 -1 -155 -6z m232 -141
c138 -67 176 -242 77 -357 -49 -58 -104 -84 -173 -84 -199 -2 -309 216 -188
373 64 85 188 114 284 68z"/>
<path d="M7350 8314 c-136 -59 -178 -233 -82 -344 125 -147 362 -79 388 111
13 92 -43 190 -131 230 -48 22 -127 24 -175 3z m105 -10 c12 -12 13 -19 4 -30
-24 -29 -59 -5 -45 31 7 19 21 19 41 -1z m-120 -69 c0 -22 -31 -33 -47 -17
-17 17 -1 44 24 40 15 -2 23 -10 23 -23z m250 0 c0 -23 -34 -33 -45 -14 -13
20 1 40 24 37 13 -2 21 -10 21 -23z m-306 -108 c15 -19 -10 -53 -33 -44 -19 7
-22 43 -3 50 20 9 24 8 36 -6z m356 -18 c0 -17 -6 -24 -20 -24 -23 0 -33 34
-13 46 20 13 33 5 33 -22z m-301 -116 c10 -25 -23 -48 -41 -30 -8 7 -11 21 -7
30 8 22 40 22 48 0z m254 -7 c4 -21 -14 -37 -35 -29 -14 5 -18 35 -6 47 12 12
38 1 41 -18z m-129 -45 c8 -14 7 -22 -4 -31 -19 -16 -45 -6 -45 18 0 36 33 45
49 13z"/>
<path d="M3109 5991 l-29 -29 0 -364 c0 -394 0 -388 57 -417 27 -14 143 -15
143 -1 0 6 -25 10 -55 10 -60 0 -109 19 -119 45 -3 9 -6 176 -6 370 l0 354 26
20 c21 16 41 21 90 21 36 0 64 4 64 10 0 6 -30 10 -71 10 -65 0 -73 -2 -100
-29z"/>
<path d="M3350 6010 c0 -7 528 -10 1564 -10 l1564 0 26 -31 26 -31 0 -334 c0
-365 -3 -384 -56 -404 -14 -6 -124 -10 -245 -10 -139 0 -219 -4 -219 -10 0 -6
82 -10 228 -10 207 0 230 2 259 20 51 31 55 57 51 433 l-3 339 -33 29 -32 29
-1565 0 c-1037 0 -1565 -3 -1565 -10z"/>
<path d="M3135 5965 l-25 -24 0 -346 c0 -406 -6 -385 105 -385 l65 0 0 390 0
390 -60 0 c-51 0 -65 -4 -85 -25z"/>
<path d="M3350 5600 l0 -390 125 0 125 0 0 189 c0 159 3 192 16 205 12 12 20
13 35 6 18 -10 19 -23 19 -205 l0 -195 815 0 815 0 2 208 3 207 25 0 25 0 3
-207 2 -208 290 0 290 0 2 198 3 197 24 3 c13 2 28 -2 32 -10 5 -7 9 -97 9
-200 l0 -188 233 0 c214 0 235 2 250 18 15 17 17 57 17 368 0 192 -4 354 -8
360 -22 34 -35 34 -1601 34 l-1551 0 0 -390z"/>
<path d="M3350 5180 c0 -6 48 -10 125 -10 77 0 125 4 125 10 0 6 -48 10 -125
10 -77 0 -125 -4 -125 -10z"/>
<path d="M3670 5180 c0 -7 278 -10 815 -10 537 0 815 3 815 10 0 7 -278 10
-815 10 -537 0 -815 -3 -815 -10z"/>
<path d="M5360 5180 c0 -6 103 -10 290 -10 187 0 290 4 290 10 0 6 -103 10
-290 10 -187 0 -290 -4 -290 -10z"/>
<path d="M3350 4698 c0 -420 2 -456 19 -493 10 -22 31 -52 47 -67 59 -55 78
-58 389 -58 l285 0 0 60 0 60 -147 0 c-82 0 -165 5 -187 11 -21 6 -58 29 -82
51 -72 66 -74 82 -74 515 l0 373 -125 0 -125 0 0 -452z"/>
<path d="M3670 4768 c0 -427 0 -429 69 -475 32 -22 44 -23 192 -23 l159 0 0
160 0 160 265 0 265 0 0 73 c0 39 5 90 11 112 14 51 73 110 124 124 24 7 139
11 293 11 l252 0 0 120 0 120 -815 0 -815 0 0 -382z"/>
<path d="M5360 5030 l0 -120 290 0 290 0 0 120 0 120 -290 0 -290 0 0 -120z"/>
<path d="M4728 4811 c-32 -29 -33 -31 -36 -125 l-4 -96 306 0 306 0 0 125 0
125 -270 0 -270 0 -32 -29z"/>
<path d="M5360 4715 l0 -125 125 0 125 0 0 -256 0 -256 114 4 c124 3 145 11
190 72 20 26 21 42 24 357 l3 329 -291 0 -290 0 0 -125z"/>
<path d="M4117 4563 c-4 -3 -7 -145 -7 -315 l0 -308 740 0 740 0 -2 313 -3
312 -731 3 c-402 1 -733 -1 -737 -5z"/>
<path d="M3280 8449 c-8 -11 -33 -26 -55 -34 -27 -9 -40 -19 -40 -32 0 -17 13
-18 194 -21 107 -1 198 1 203 6 15 15 -3 42 -27 42 -13 0 -37 14 -55 30 -31
29 -36 30 -119 30 -74 -1 -88 -3 -101 -21z"/>
<path d="M4500 8449 c-8 -11 -33 -26 -55 -34 -27 -9 -40 -19 -40 -32 0 -17 13
-18 194 -21 107 -1 198 1 203 6 15 15 -3 42 -27 42 -13 0 -37 14 -55 30 -31
29 -36 30 -119 30 -74 -1 -88 -3 -101 -21z"/>
<path d="M5720 8449 c-8 -11 -33 -26 -55 -34 -27 -9 -40 -19 -40 -32 0 -17 13
-18 194 -21 107 -1 198 1 203 6 15 15 -3 42 -27 42 -13 0 -37 14 -55 30 -31
29 -36 30 -119 30 -74 -1 -88 -3 -101 -21z"/>
<path d="M3284 8325 c-6 -15 -58 -45 -79 -45 -7 0 -18 -7 -25 -15 -10 -12 -10
-18 0 -30 18 -21 376 -22 405 -1 16 12 17 16 6 30 -7 9 -24 16 -36 16 -13 0
-37 14 -53 30 -29 29 -34 30 -122 30 -71 0 -92 -3 -96 -15z"/>
<path d="M4503 8327 c-11 -17 -59 -47 -76 -47 -8 0 -20 -7 -27 -15 -10 -12
-10 -18 0 -30 10 -12 46 -15 205 -15 159 0 195 3 205 15 17 20 -3 45 -35 45
-13 0 -37 14 -53 30 -29 29 -34 30 -121 30 -62 0 -92 -4 -98 -13z"/>
<path d="M5724 8325 c-6 -15 -58 -45 -79 -45 -7 0 -18 -7 -25 -15 -10 -12 -10
-18 0 -30 10 -12 46 -15 205 -15 159 0 195 3 205 15 17 20 -3 45 -35 45 -13 0
-37 14 -53 30 -29 29 -34 30 -122 30 -71 0 -92 -3 -96 -15z"/>
<path d="M3275 8191 c-3 -10 -15 -23 -28 -29 -17 -8 14 -11 130 -11 l151 -1
-28 30 c-27 29 -30 30 -123 30 -84 0 -96 -2 -102 -19z"/>
<path d="M4498 8192 c-7 -10 -22 -24 -33 -30 -16 -9 13 -11 132 -12 l151 0
-28 30 c-27 29 -31 30 -118 30 -77 0 -93 -3 -104 -18z"/>
<path d="M5724 8195 c-4 -9 -18 -22 -33 -30 -23 -13 -12 -14 126 -15 l151 0
-28 30 c-27 29 -31 30 -119 30 -73 0 -93 -3 -97 -15z"/>
<path d="M3166 8123 c-14 -37 18 -43 220 -43 164 0 195 2 209 16 12 12 13 19
4 30 -9 11 -54 14 -219 14 -188 0 -209 -2 -214 -17z"/>
<path d="M4386 8124 c-15 -39 8 -44 215 -44 168 0 200 2 214 16 12 12 13 19 4
30 -9 11 -54 14 -219 14 -183 0 -209 -2 -214 -16z"/>
<path d="M5606 8124 c-15 -39 8 -44 215 -44 168 0 200 2 214 16 12 12 13 19 4
30 -9 11 -54 14 -219 14 -183 0 -209 -2 -214 -16z"/>
<path d="M3252 8034 c-19 -19 -44 -34 -57 -34 -32 0 -51 -25 -35 -45 11 -13
46 -15 229 -13 l216 3 0 25 c0 20 -6 26 -27 28 -16 2 -44 19 -64 38 l-37 34
-96 -1 c-95 -2 -96 -2 -129 -35z"/>
<path d="M4472 8034 c-19 -19 -44 -34 -57 -34 -32 0 -51 -25 -35 -45 11 -13
46 -15 229 -13 l216 3 0 25 c0 20 -6 26 -27 28 -16 2 -44 19 -64 38 l-37 34
-96 -1 c-95 -2 -96 -2 -129 -35z"/>
<path d="M5692 8034 c-19 -19 -44 -34 -57 -34 -32 0 -51 -25 -35 -45 11 -13
46 -15 229 -13 l216 3 0 25 c0 20 -6 26 -27 28 -16 2 -44 19 -64 38 l-37 34
-96 -1 c-95 -2 -96 -2 -129 -35z"/>
<path d="M3274 7905 c-7 -18 -69 -55 -93 -55 -29 0 -46 -26 -31 -45 11 -13 47
-15 239 -13 l226 3 0 25 c0 17 -6 26 -20 28 -37 6 -85 33 -95 52 -10 18 -22
20 -116 20 -82 0 -106 -3 -110 -15z"/>
<path d="M4488 7902 c-18 -25 -64 -52 -86 -52 -29 0 -48 -26 -32 -45 11 -13
47 -15 239 -13 226 3 226 3 229 26 3 22 -1 25 -52 37 -16 3 -41 19 -57 36 -26
28 -29 29 -127 29 -85 0 -103 -3 -114 -18z"/>
<path d="M5714 7905 c-7 -18 -69 -55 -93 -55 -29 0 -46 -26 -31 -45 11 -13 47
-15 239 -13 l226 3 0 25 c0 18 -6 26 -25 30 -36 7 -87 37 -93 55 -9 22 -215
22 -223 0z"/>
<path d="M3269 7754 c-21 -25 -86 -64 -108 -64 -23 0 -35 -28 -20 -46 10 -12
56 -14 248 -12 l236 3 0 25 0 25 -210 5 -210 6 177 2 176 2 -35 35 -35 35
-103 0 c-83 0 -105 -3 -116 -16z"/>
<path d="M4487 7755 c-8 -19 -82 -65 -106 -65 -23 0 -35 -28 -20 -46 10 -12
56 -14 248 -12 221 3 236 4 239 22 2 10 -1 23 -6 28 -6 6 -94 10 -219 11
l-208 1 185 6 c102 3 180 7 173 8 -6 1 -24 16 -40 32 -28 30 -29 30 -134 30
-84 0 -108 -3 -112 -15z"/>
<path d="M5709 7754 c-21 -25 -86 -64 -108 -64 -23 0 -35 -28 -20 -46 10 -12
56 -14 248 -12 l236 3 0 25 0 25 -215 5 -215 6 185 2 c177 2 183 3 160 19 -14
9 -31 25 -38 35 -19 26 -212 27 -233 2z"/>
<path d="M3260 7589 c-7 -11 -26 -27 -43 -34 -29 -13 -11 -14 163 -14 178 0
193 1 168 15 -15 8 -32 23 -38 34 -10 18 -21 20 -125 20 -106 0 -115 -2 -125
-21z"/>
<path d="M4480 7589 c-7 -11 -26 -27 -43 -34 -29 -13 -11 -14 163 -14 178 0
193 1 168 15 -15 8 -32 23 -38 34 -10 18 -21 20 -125 20 -106 0 -115 -2 -125
-21z"/>
<path d="M5700 7589 c-7 -11 -26 -27 -43 -34 -29 -13 -11 -14 163 -14 178 0
193 1 168 15 -15 8 -32 23 -38 34 -10 18 -21 20 -125 20 -106 0 -115 -2 -125
-21z"/>
<path d="M3131 7516 c-6 -7 -9 -21 -5 -30 6 -15 32 -16 258 -14 l251 3 0 25 0
25 -246 3 c-201 2 -248 0 -258 -12z"/>
<path d="M4351 7516 c-6 -7 -9 -21 -5 -30 6 -15 32 -16 258 -14 l251 3 0 25 0
25 -246 3 c-201 2 -248 0 -258 -12z"/>
<path d="M5571 7516 c-6 -7 -9 -21 -5 -30 6 -15 32 -16 258 -14 l251 3 0 25 0
25 -246 3 c-201 2 -248 0 -258 -12z"/>
<path d="M3937 7464 c-4 -4 -7 -22 -7 -41 0 -31 2 -33 36 -33 35 0 35 1 32 38
-3 31 -7 37 -28 40 -14 2 -29 0 -33 -4z"/>
<path d="M5147 7464 c-4 -4 -7 -22 -7 -41 0 -31 2 -33 36 -33 35 0 35 1 32 38
-3 31 -7 37 -28 40 -14 2 -29 0 -33 -4z"/>
<path d="M6347 7464 c-11 -11 -8 -62 3 -69 6 -4 24 -3 41 0 27 6 30 10 27 38
-3 27 -7 32 -33 35 -17 2 -34 0 -38 -4z"/>
<path d="M3252 7420 c-12 -16 -34 -33 -47 -36 -14 -3 -25 -10 -25 -15 0 -5
-13 -9 -29 -9 -30 0 -45 -19 -35 -45 5 -13 44 -15 264 -15 217 0 260 2 270 15
10 12 10 18 0 30 -10 12 -52 15 -239 17 l-226 2 200 6 c166 4 195 7 173 17
-15 7 -34 24 -44 38 -16 24 -19 25 -128 25 l-112 0 -22 -30z"/>
<path d="M4476 7425 c-17 -26 -87 -65 -117 -65 -19 0 -31 -23 -23 -45 5 -13
44 -15 263 -15 181 0 260 3 269 12 16 16 -3 48 -29 48 -26 0 -95 44 -109 70
-10 18 -21 20 -124 20 -110 0 -114 -1 -130 -25z m227 -62 c-57 -2 -149 -2
-205 0 -57 1 -11 3 102 3 113 0 159 -2 103 -3z"/>
<path d="M5696 7425 c-17 -26 -87 -65 -117 -65 -19 0 -31 -23 -23 -45 5 -13
44 -15 265 -15 241 0 259 1 268 18 20 38 -3 42 -243 44 l-231 2 205 6 c170 4
200 7 178 17 -15 7 -34 24 -44 38 -16 24 -19 25 -129 25 -109 0 -113 -1 -129
-25z"/>
<path d="M3897 7361 c-15 -10 -30 -21 -34 -24 -3 -4 42 -7 100 -7 65 0 107 4
107 10 0 6 -6 10 -14 10 -7 0 -19 7 -26 15 -17 21 -98 18 -133 -4z"/>
<path d="M5103 7361 c-18 -9 -33 -19 -33 -23 0 -5 47 -8 105 -8 100 0 134 10
80 24 -14 4 -25 11 -25 16 0 16 -91 9 -127 -9z"/>
<path d="M6320 7365 c-7 -8 -19 -15 -26 -15 -8 0 -14 -4 -14 -10 0 -6 40 -10
100 -10 55 0 100 3 100 8 0 4 -14 15 -31 25 -38 21 -112 23 -129 2z"/>
<path d="M3915 7309 c-4 -5 -18 -14 -31 -19 -51 -20 -23 -30 80 -30 108 0 139
10 86 29 -17 5 -30 15 -30 20 0 14 -97 14 -105 0z"/>
<path d="M5125 7309 c-4 -5 -18 -14 -31 -19 -51 -20 -23 -30 81 -30 104 0 132
10 81 30 -13 5 -27 14 -31 19 -3 6 -26 11 -50 11 -24 0 -47 -5 -50 -11z"/>
<path d="M6331 7306 c-7 -8 -23 -17 -37 -20 -53 -14 -8 -26 92 -26 103 0 131
10 80 30 -13 5 -27 14 -31 19 -9 16 -91 13 -104 -3z"/>
<path d="M3252 7255 c-11 -24 -81 -65 -113 -65 -24 0 -42 -26 -34 -50 6 -19
13 -20 274 -20 216 0 271 3 280 14 16 20 3 45 -28 52 -47 10 -94 38 -110 66
l-16 28 -121 0 c-119 0 -121 0 -132 -25z"/>
<path d="M4472 7255 c-11 -24 -81 -65 -113 -65 -24 0 -42 -26 -34 -50 6 -19
13 -20 274 -20 216 0 271 3 280 14 16 20 3 45 -28 52 -47 10 -94 38 -110 66
l-16 28 -121 0 c-119 0 -121 0 -132 -25z"/>
<path d="M5690 7254 c-14 -26 -80 -64 -111 -64 -24 0 -42 -26 -34 -50 6 -19
13 -20 274 -20 216 0 271 3 280 14 16 20 3 45 -28 52 -47 10 -94 38 -110 66
l-16 28 -121 0 c-119 0 -121 0 -134 -26z"/>
<path d="M3915 7239 c-4 -5 -18 -14 -31 -19 -52 -20 -23 -30 86 -30 109 0 138
10 86 30 -13 5 -27 14 -31 19 -3 6 -28 11 -55 11 -27 0 -52 -5 -55 -11z"/>
<path d="M5120 7241 c0 -5 -13 -14 -30 -20 -60 -21 -32 -31 85 -31 117 0 145
10 85 31 -16 6 -30 15 -30 20 0 5 -25 9 -55 9 -30 0 -55 -4 -55 -9z"/>
<path d="M6325 7239 c-4 -5 -18 -14 -31 -19 -52 -20 -23 -30 86 -30 109 0 138
10 86 30 -13 5 -27 14 -31 19 -3 6 -28 11 -55 11 -27 0 -52 -5 -55 -11z"/>
<path d="M3901 7160 c-13 -11 -30 -20 -38 -20 -29 0 -6 -25 26 -28 32 -3 32
-4 15 -23 -9 -10 -25 -19 -36 -19 -10 0 -18 -7 -18 -15 0 -12 20 -15 120 -15
76 0 120 4 120 10 0 6 -8 14 -17 17 -10 4 -28 14 -41 24 l-23 18 32 3 c32 3
55 28 26 28 -7 0 -22 9 -32 20 -25 27 -101 27 -134 0z"/>
<path d="M5106 7159 c-11 -10 -26 -19 -34 -19 -28 0 -5 -25 28 -30 27 -4 31
-7 19 -17 -8 -6 -28 -17 -43 -23 -20 -7 -26 -14 -19 -21 13 -13 238 -7 237 6
0 6 -9 12 -20 14 -10 1 -27 10 -38 20 -18 15 -17 16 15 21 32 5 54 30 27 30
-8 0 -24 9 -36 20 -29 27 -109 27 -136 -1z"/>
<path d="M6303 7157 c-37 -25 -37 -40 0 -47 32 -6 24 -24 -16 -39 -56 -22 -28
-31 93 -31 100 0 120 3 120 15 0 8 -8 15 -18 15 -11 0 -27 9 -36 19 -17 19
-17 20 15 23 32 3 55 28 26 28 -8 0 -26 9 -40 20 -34 27 -101 25 -144 -3z"/>
<path d="M3237 7065 c-15 -19 -34 -35 -42 -35 -8 0 -17 -5 -20 -10 -4 -7 64
-10 209 -10 131 1 214 5 211 11 -4 5 -12 9 -20 9 -8 0 -27 16 -42 35 l-28 35
-120 0 -120 0 -28 -35z"/>
<path d="M4455 7067 c-17 -18 -39 -37 -50 -44 -16 -8 27 -11 192 -11 l211 -1
-44 45 -45 44 -117 -1 -117 0 -30 -32z"/>
<path d="M5677 7065 c-15 -19 -34 -35 -42 -35 -8 0 -16 -4 -19 -9 -3 -4 89 -9
204 -10 142 -1 210 1 210 8 0 6 -7 11 -15 11 -8 0 -27 16 -42 35 l-28 35 -120
0 -120 0 -28 -35z"/>
<path d="M3910 7019 c0 -5 -16 -17 -35 -25 -62 -26 -41 -34 90 -34 104 0 125
2 125 15 0 8 -8 15 -18 15 -11 0 -27 9 -37 20 -14 15 -31 20 -72 20 -30 0 -53
-4 -53 -11z"/>
<path d="M5105 7010 c-10 -11 -26 -20 -37 -20 -10 0 -18 -7 -18 -15 0 -13 21
-15 125 -15 104 0 125 2 125 15 0 8 -8 15 -18 15 -11 0 -27 9 -37 20 -14 15
-31 20 -70 20 -39 0 -56 -5 -70 -20z"/>
<path d="M6315 7010 c-10 -11 -26 -20 -37 -20 -10 0 -18 -7 -18 -15 0 -13 21
-15 125 -15 73 0 125 4 125 10 0 5 -16 17 -35 26 -19 9 -35 20 -35 25 0 5 -24
9 -53 9 -41 0 -58 -5 -72 -20z"/>
<path d="M3093 6984 c-3 -9 -2 -24 4 -33 9 -14 45 -16 285 -19 295 -3 308 0
293 48 -6 20 -13 20 -291 20 -254 0 -285 -2 -291 -16z"/>
<path d="M4313 6984 c-3 -9 -2 -24 4 -33 9 -14 45 -16 285 -19 295 -3 308 0
293 48 -6 20 -13 20 -291 20 -254 0 -285 -2 -291 -16z"/>
<path d="M5533 6984 c-3 -9 -2 -24 4 -33 9 -14 45 -16 285 -19 295 -3 308 0
293 48 -6 20 -13 20 -291 20 -254 0 -285 -2 -291 -16z"/>
<path d="M3899 6934 c-7 -9 -24 -20 -37 -25 -13 -5 -22 -15 -19 -22 3 -9 38
-12 128 -12 104 0 124 2 124 15 0 8 -10 16 -21 18 -12 2 -30 12 -40 23 -22 25
-115 27 -135 3z"/>
<path d="M5106 6931 c-10 -11 -28 -21 -40 -23 -11 -2 -21 -10 -21 -18 0 -13
21 -15 130 -15 109 0 130 2 130 15 0 8 -10 16 -21 18 -12 2 -30 12 -40 23 -13
14 -30 19 -69 19 -39 0 -56 -5 -69 -19z"/>
<path d="M6324 6939 c-3 -6 -22 -18 -41 -25 -19 -8 -33 -20 -30 -27 5 -17 249
-17 254 0 3 7 -6 17 -19 22 -13 5 -30 16 -37 25 -16 19 -116 23 -127 5z"/>
<path d="M3886 6839 c-11 -10 -28 -19 -38 -19 -10 0 -18 -7 -18 -15 0 -13 22
-15 134 -15 76 0 137 4 141 10 3 5 -10 16 -28 24 -19 8 -38 19 -41 25 -4 6
-34 11 -69 10 -48 0 -66 -5 -81 -20z"/>
<path d="M5091 6840 c-13 -11 -29 -20 -37 -20 -8 0 -14 -7 -14 -15 0 -13 22
-15 135 -15 113 0 135 2 135 15 0 8 -8 15 -18 15 -11 0 -27 9 -37 20 -26 28
-130 28 -164 0z"/>
<path d="M6314 6849 c-3 -6 -22 -17 -41 -25 -18 -8 -31 -19 -28 -24 4 -6 65
-10 141 -10 112 0 134 2 134 15 0 8 -8 15 -18 15 -10 0 -28 9 -40 20 -16 15
-35 20 -81 20 -33 0 -63 -5 -67 -11z"/>
<path d="M3830 6770 c0 -5 5 -10 10 -10 6 0 10 -28 10 -65 l0 -65 115 0 115 0
0 65 c0 37 4 65 10 65 6 0 10 5 10 10 0 6 -52 10 -135 10 -83 0 -135 -4 -135
-10z"/>
<path d="M5035 6770 c-3 -5 1 -10 9 -10 13 0 16 -13 16 -65 l0 -65 110 0 110
0 0 65 c0 52 3 65 16 65 8 0 12 5 9 10 -4 6 -60 10 -135 10 -75 0 -131 -4
-135 -10z"/>
<path d="M6245 6770 c-3 -5 1 -10 9 -10 13 0 16 -13 16 -65 l0 -65 110 0 110
0 0 65 c0 52 3 65 16 65 8 0 12 5 9 10 -4 6 -60 10 -135 10 -75 0 -131 -4
-135 -10z"/>
<path d="M2340 6170 l0 -30 -860 0 -860 0 -10 -26 c-13 -33 -13 -105 0 -138 9
-24 14 -26 70 -26 l60 0 0 44 c0 46 19 72 45 62 10 -4 16 -22 17 -58 l2 -53 3
47 c7 87 63 95 63 8 0 -27 5 -50 10 -50 6 0 10 23 10 50 0 87 56 79 63 -8 l3
-47 2 51 c2 53 16 70 47 58 10 -4 16 -22 17 -58 l2 -51 3 47 c7 88 62 94 65 6
l1 -53 6 49 c11 89 67 87 74 -2 l3 -47 2 53 c3 88 58 82 65 -6 l3 -47 2 51 c1
38 7 54 18 58 26 10 43 -12 47 -62 l3 -47 2 46 c4 89 61 95 64 7 l1 -53 6 49
c11 89 67 87 74 -2 l3 -47 2 53 c3 88 58 82 65 -6 l3 -47 2 51 c1 36 7 54 17
58 31 12 45 -5 47 -58 l2 -51 3 47 c7 87 63 95 63 8 0 -27 5 -50 10 -50 6 0
10 23 10 50 0 87 56 79 63 -8 l3 -47 2 53 c3 88 58 82 65 -6 l3 -47 2 46 c4
89 61 95 64 7 l2 -53 3 47 c7 87 63 95 63 8 0 -27 5 -50 10 -50 6 0 10 23 10
50 0 87 56 79 63 -8 l3 -47 2 53 c3 88 58 82 65 -6 l3 -47 2 46 c4 89 61 95
64 7 l2 -53 3 47 c7 87 63 95 63 8 l0 -50 45 0 c45 0 45 0 45 -35 0 -28 4 -35
20 -35 19 0 20 7 20 160 0 153 -1 160 -20 160 -16 0 -20 -7 -20 -30z"/>
<path d="M756 6035 c-3 -9 -6 -380 -6 -825 l0 -808 -21 -5 c-23 -6 -17 -27 7
-27 12 0 14 -112 14 -812 0 -447 4 -819 9 -827 29 -45 31 11 31 820 l0 819 21
0 c20 0 20 -1 14 -327 -7 -411 -7 -433 2 -916 10 -491 26 -535 33 -90 5 300 5
307 23 276 15 -28 17 -64 17 -307 0 -258 5 -305 27 -282 4 3 9 114 11 246 4
200 7 238 18 229 11 -9 14 -63 16 -243 3 -197 5 -231 18 -231 13 0 15 30 18
204 2 178 4 202 17 191 12 -10 15 -46 15 -194 0 -176 6 -216 29 -202 7 5 11
63 11 177 0 166 0 169 20 159 18 -10 20 -23 22 -173 4 -207 22 -215 26 -11 2
127 5 145 18 140 9 -3 18 -6 20 -6 2 0 4 -63 4 -139 0 -88 4 -142 11 -146 6
-4 12 -5 15 -2 2 2 7 63 11 135 5 102 9 129 19 125 10 -4 14 -38 16 -131 3
-105 6 -127 18 -127 12 0 16 21 18 118 2 95 5 117 17 117 12 0 15 -16 16 -72
0 -80 7 -159 13 -166 3 -2 9 -1 15 3 7 4 11 47 11 111 0 97 1 104 20 104 18 0
20 -8 22 -105 4 -139 21 -142 28 -5 3 58 8 104 13 103 4 -2 12 -3 17 -3 6 0
10 -40 10 -99 0 -63 4 -102 11 -107 20 -12 27 18 28 109 0 49 3 93 6 98 17 26
25 -2 27 -98 2 -88 6 -108 18 -108 12 0 16 20 18 108 2 86 6 107 17 107 11 0
15 -12 15 -42 0 -24 3 -74 7 -111 10 -106 27 -78 33 54 4 97 7 114 22 117 16
3 18 -9 20 -115 4 -157 22 -152 26 7 2 107 5 121 22 130 19 10 20 7 20 -119 0
-121 7 -157 28 -136 4 4 9 70 12 147 3 99 9 143 17 145 9 3 13 -32 15 -144 3
-124 5 -148 18 -148 13 0 15 26 18 159 2 146 9 186 31 186 3 0 6 -77 7 -170 0
-94 3 -173 7 -176 21 -21 27 21 27 195 0 181 5 211 32 211 4 0 9 -91 10 -202
2 -127 7 -203 13 -203 6 0 11 83 13 224 2 205 4 225 22 249 l20 25 0 -246 c0
-170 3 -248 11 -253 6 -3 15 0 20 7 5 8 9 136 9 286 0 196 3 280 13 300 10 22
13 -24 17 -283 4 -266 7 -309 20 -309 13 0 16 57 23 420 9 518 9 460 1 878 -6
346 -6 347 15 347 l21 0 0 -816 c0 -448 2 -820 6 -825 3 -5 10 -7 15 -4 5 4 9
330 9 825 l0 819 23 3 c12 2 22 8 22 13 0 6 -10 11 -22 13 l-23 3 0 819 c0
495 -4 821 -9 825 -5 3 -12 1 -15 -4 -4 -5 -6 -377 -6 -825 l0 -816 -21 0
c-21 0 -21 1 -15 348 8 426 8 379 -1 882 -7 359 -10 415 -23 415 -13 0 -16
-43 -20 -304 -4 -255 -7 -300 -17 -278 -9 20 -13 103 -13 295 0 147 -4 273 -9
281 -25 39 -31 -7 -31 -242 0 -242 0 -242 -20 -217 -18 23 -20 45 -22 243 -4
282 -22 300 -26 25 -1 -109 -6 -198 -10 -198 -27 0 -32 30 -32 206 0 112 -4
185 -10 189 -18 11 -23 -25 -24 -181 -1 -85 -3 -154 -6 -154 -25 1 -30 25 -32
175 -3 134 -5 160 -18 160 -13 0 -15 -24 -18 -148 -2 -130 -4 -147 -17 -137
-12 10 -15 40 -15 140 0 95 -3 130 -13 139 -8 6 -17 8 -20 4 -4 -3 -7 -62 -7
-130 0 -67 -3 -123 -7 -123 -27 1 -32 22 -35 133 -4 151 -22 156 -26 7 -2
-102 -4 -110 -22 -110 -19 0 -20 7 -20 109 0 98 -8 138 -24 113 -3 -4 -8 -54
-12 -110 -9 -136 -27 -131 -34 9 -4 84 -8 104 -20 104 -12 0 -16 -19 -18 -102
-2 -83 -6 -103 -17 -103 -12 0 -15 18 -16 85 -2 97 -2 96 -12 113 -18 28 -27
-4 -27 -99 0 -92 -1 -99 -20 -99 -18 0 -20 8 -22 103 -4 131 -22 131 -26 0 -3
-91 -9 -112 -34 -113 -5 0 -8 47 -8 104 0 99 -9 132 -27 104 -8 -13 -10 -45
-12 -155 -1 -48 -4 -63 -16 -63 -12 0 -15 22 -17 113 -2 92 -6 112 -18 112
-12 0 -16 -23 -20 -124 -7 -167 -25 -173 -33 -10 -4 66 -10 125 -13 130 -16
27 -24 -16 -24 -136 0 -123 -2 -135 -20 -145 -19 -10 -20 -6 -22 137 -4 199
-22 192 -26 -9 -2 -143 -9 -178 -33 -178 -5 0 -9 73 -9 163 0 90 -3 167 -7
170 -3 4 -12 2 -20 -4 -10 -9 -13 -54 -13 -194 0 -152 -2 -184 -15 -189 -12
-4 -15 23 -17 192 -3 167 -5 197 -18 197 -13 0 -15 -32 -17 -220 -3 -203 -10
-265 -32 -265 -3 0 -6 102 -6 228 0 223 -5 269 -25 257 -6 -4 -10 -105 -10
-275 0 -236 -2 -274 -17 -306 -18 -36 -18 -31 -23 270 -7 445 -23 404 -33 -84
-9 -477 -9 -508 -2 -922 6 -326 6 -328 -14 -328 l-21 0 -2 822 c-2 598 -6 822
-14 825 -6 2 -14 -3 -18 -12z m654 -411 c0 -74 -3 -134 -6 -134 -24 0 -33 43
-34 152 0 112 6 136 33 121 4 -2 7 -65 7 -139z m68 4 c-3 -127 -5 -143 -20
-146 -17 -3 -18 9 -18 142 0 140 1 146 20 146 20 0 20 -5 18 -142z m72 25 c-1
-78 -6 -128 -15 -148 -12 -27 -13 -16 -14 118 -1 124 1 147 14 147 13 0 15
-20 15 -117z m68 94 c2 -10 -3 -17 -12 -17 -10 0 -16 9 -16 21 0 24 23 21 28
-4z m-286 -87 c2 -50 1 -90 -2 -90 -4 0 -11 5 -18 12 -13 13 -17 149 -5 161
17 17 22 1 25 -83z m365 75 c3 -9 3 -18 1 -21 -9 -9 -38 8 -38 22 0 19 29 18
37 -1z m-437 -61 c0 -40 -2 -45 -15 -34 -8 7 -15 28 -15 46 0 24 5 34 15 34
11 0 15 -12 15 -46z m508 23 c3 -16 1 -17 -17 -7 -25 13 -28 33 -4 28 10 -2
19 -11 21 -21z m-588 -42 c-16 -19 -30 -19 -30 0 0 17 33 38 38 24 2 -5 -2
-16 -8 -24z m660 -165 c0 -158 -2 -189 -15 -194 -13 -5 -15 21 -15 194 0 173
2 199 15 194 13 -5 15 -36 15 -194z m-736 103 c-17 -12 -19 -12 -23 3 -2 10 5
24 15 31 17 12 19 12 23 -3 2 -10 -5 -24 -15 -31z m809 -126 c1 -81 1 -147 0
-147 -1 0 -8 -3 -17 -6 -14 -5 -16 13 -16 162 0 152 1 167 16 153 12 -13 16
-45 17 -162z m-877 -254 c-3 -7 -10 -13 -16 -13 -15 0 -13 325 3 353 10 18 12
-7 15 -153 1 -96 0 -180 -2 -187z m954 227 c0 -95 -5 -110 -36 -110 -2 0 -4
55 -4 122 0 120 0 121 20 103 17 -16 20 -31 20 -115z m-870 -97 c0 -62 -2
-113 -4 -113 -2 0 -11 -3 -20 -6 -14 -5 -16 10 -16 131 0 137 0 138 20 120 18
-16 20 -31 20 -132z m650 70 c0 -68 -1 -68 -19 -44 -16 21 -16 27 -3 67 8 24
16 44 18 44 2 0 4 -30 4 -67z m-804 -220 c-3 -7 -11 -13 -18 -13 -18 0 -15
234 4 269 11 21 13 7 16 -109 1 -74 0 -140 -2 -147z m1082 252 c7 -14 12 -41
12 -60 0 -28 -3 -32 -20 -28 -17 5 -20 14 -20 59 0 59 10 69 28 29z m-435 -38
c66 -27 133 -103 153 -175 68 -232 -172 -434 -389 -328 -162 79 -209 285 -96
427 78 98 208 128 332 76z m-435 1 c12 -12 17 -124 6 -152 -3 -9 -12 -16 -20
-16 -11 0 -14 20 -14 90 0 89 5 101 28 78z m-279 -255 c-1 -85 -4 -128 -9
-113 -15 47 -10 250 6 250 2 0 4 -62 3 -137z m1214 -70 c-10 -64 -10 -60 -10
72 0 134 0 137 10 68 6 -47 6 -95 0 -140z m-53 -73 c0 -96 -4 -128 -17 -153
-18 -32 -18 -31 -21 112 -3 142 1 160 31 161 4 0 7 -54 7 -120z m-70 -68 c0
-156 -2 -170 -20 -187 -20 -18 -20 -17 -20 163 0 178 2 188 33 191 4 1 7 -75
7 -167z m-76 13 c1 -107 -1 -125 -14 -123 -20 4 -28 237 -8 249 7 4 14 6 16 4
3 -2 5 -61 6 -130z m-74 24 c0 -80 -2 -90 -15 -79 -15 13 -22 121 -9 154 15
38 24 9 24 -75z m-650 -164 c0 -107 -4 -195 -8 -195 -27 0 -32 30 -32 207 0
176 1 183 20 183 19 0 20 -7 20 -195z m-70 20 c0 -91 -4 -165 -8 -165 -26 0
-32 30 -32 171 0 144 2 155 33 158 4 1 7 -73 7 -164z m-80 23 c-1 -110 -2
-121 -15 -104 -11 14 -15 47 -15 117 0 91 2 100 28 108 1 1 2 -54 2 -121z
m-82 93 c9 -5 12 -25 10 -62 -3 -46 -5 -51 -14 -34 -13 22 -25 105 -15 105 3
0 12 -4 19 -9z m290 -74 c-7 -26 -15 -47 -18 -47 -3 0 -3 28 -2 61 3 54 6 60
18 47 13 -12 13 -22 2 -61z m-348 -269 c0 -201 -1 -208 -20 -208 -19 0 -20 7
-20 243 l1 242 19 -35 c17 -31 19 -57 20 -242z m1230 27 c0 -202 -2 -235 -15
-235 -13 0 -15 30 -15 210 0 137 4 218 12 235 6 14 13 25 15 25 1 0 3 -106 3
-235z m-592 -96 c-10 -7 -14 21 -16 133 -2 107 1 143 10 149 10 7 14 -21 16
-133 2 -107 -1 -143 -10 -149z m-58 136 c0 -80 -2 -145 -4 -145 -2 0 -11 3
-20 6 -31 12 -17 284 14 284 6 0 10 -60 10 -145z m138 -3 c-2 -89 -7 -127 -15
-130 -10 -3 -13 29 -13 138 0 127 2 141 15 130 13 -11 15 -36 13 -138z m-662
61 c10 -13 13 -60 14 -175 0 -144 -2 -158 -17 -158 -17 0 -18 15 -18 175 0 96
2 175 4 175 2 0 10 -8 17 -17z m1104 -158 c0 -168 -1 -175 -20 -175 -19 0 -20
7 -20 150 0 122 3 155 16 175 9 14 18 25 20 25 2 0 4 -79 4 -175z m-370 145
c6 -11 10 -51 8 -88 -2 -54 -6 -67 -20 -70 -16 -3 -18 6 -18 87 0 90 9 111 30
71z m227 -5 c0 -8 -9 -22 -19 -32 -17 -15 -18 -15 -18 3 0 19 17 44 30 44 4 0
7 -7 7 -15z m-147 -95 c0 -19 -6 -29 -20 -33 -18 -5 -20 0 -20 45 0 50 0 51
20 33 11 -10 20 -30 20 -45z m58 9 c-9 -6 -14 -3 -16 8 -2 8 2 19 10 24 9 6
14 3 16 -8 2 -8 -2 -19 -10 -24z m-788 -110 c0 -99 -3 -119 -15 -119 -13 0
-15 21 -15 131 0 116 2 130 15 119 12 -10 15 -38 15 -131z m950 11 c0 -123 -1
-130 -20 -130 -19 0 -20 7 -20 118 0 112 7 142 32 142 4 0 8 -58 8 -130z
m-730 69 c0 -12 -5 -16 -15 -13 -8 4 -15 15 -15 25 0 12 5 16 15 13 8 -4 15
-15 15 -25z m-152 -11 c8 -8 12 -45 12 -100 0 -81 -2 -88 -20 -88 -19 0 -20 7
-20 100 0 98 4 112 28 88z m222 -15 c0 -20 -24 -11 -28 10 -2 12 1 15 12 11 9
-3 16 -13 16 -21z m585 -73 c0 -89 -2 -100 -17 -100 -16 0 -18 11 -18 88 0 79
9 112 30 112 3 0 5 -45 5 -100z m-505 59 c0 -14 -6 -19 -17 -17 -26 5 -28 33
-3 35 14 1 20 -4 20 -18z m-222 -87 c3 -67 1 -72 -18 -72 -18 0 -20 6 -20 76
0 66 2 75 18 72 14 -3 18 -16 20 -76z m652 3 c0 -60 -3 -75 -15 -75 -12 0 -15
14 -15 68 0 38 3 72 7 75 17 18 23 1 23 -68z m-580 -21 c0 -41 -4 -54 -15 -54
-12 0 -15 13 -15 60 0 49 3 58 15 54 11 -5 15 -21 15 -60z m510 6 c0 -53 -2
-60 -20 -60 -18 0 -20 7 -20 54 0 50 6 62 33 65 4 1 7 -26 7 -59z m-440 -15
c0 -33 -4 -45 -15 -45 -11 0 -15 12 -15 45 0 33 4 45 15 45 11 0 15 -12 15
-45z m370 0 c0 -38 -3 -45 -20 -45 -17 0 -20 7 -20 45 0 38 3 45 20 45 17 0
20 -7 20 -45z m-290 -11 c0 -27 -4 -34 -20 -34 -17 0 -20 7 -20 39 0 34 3 38
20 34 15 -4 20 -14 20 -39z m212 2 c-6 -48 -32 -49 -32 -2 0 30 14 49 31 40 3
-1 3 -19 1 -38z m-142 -1 c0 -28 -4 -35 -20 -35 -16 0 -20 7 -20 35 0 28 4 35
20 35 16 0 20 -7 20 -35z m70 0 c0 -24 -5 -35 -15 -35 -10 0 -15 11 -15 35 0
24 5 35 15 35 10 0 15 -11 15 -35z m-650 -267 c-1 -181 -3 -207 -20 -238 l-19
-35 -1 238 c0 230 1 237 20 237 19 0 20 -7 20 -202z m70 50 c-1 -111 -4 -158
-14 -170 -7 -10 -16 -18 -19 -18 -3 0 -4 8 -2 18 2 9 4 86 4 170 1 128 3 152
16 152 13 0 15 -23 15 -152z m70 33 c0 -93 -3 -121 -15 -131 -13 -11 -15 3
-15 119 0 110 2 131 15 131 12 0 15 -20 15 -119z m80 36 c0 -71 -3 -87 -20
-102 -20 -18 -20 -17 -20 83 0 95 1 102 20 102 18 0 20 -7 20 -83z m70 18 c0
-54 -3 -66 -20 -75 -19 -10 -20 -8 -20 65 0 68 2 75 20 75 18 0 20 -7 20 -65z
m68 13 c-4 -74 -28 -77 -28 -4 0 44 3 56 16 56 12 0 14 -10 12 -52z m72 13 c0
-25 -5 -41 -15 -45 -12 -4 -15 4 -15 39 0 33 4 45 15 45 11 0 15 -11 15 -39z
m78 7 c-2 -22 -9 -34 -20 -36 -15 -3 -18 4 -18 32 0 30 4 36 21 36 17 0 20 -5
17 -32z m72 2 c0 -23 -4 -30 -20 -30 -16 0 -20 7 -20 30 0 23 4 30 20 30 16 0
20 -7 20 -30z m70 0 c0 -20 -5 -30 -15 -30 -10 0 -15 10 -15 30 0 20 5 30 15
30 10 0 15 -10 15 -30z m70 -5 c0 -24 -5 -35 -15 -35 -10 0 -15 11 -15 35 0
24 5 35 15 35 10 0 15 -11 15 -35z m80 -5 c0 -33 -3 -40 -20 -40 -17 0 -20 7
-20 40 0 33 3 40 20 40 17 0 20 -7 20 -40z m70 -16 c0 -47 -3 -55 -16 -50 -9
3 -18 6 -20 6 -2 0 -4 23 -4 50 0 43 3 50 20 50 18 0 20 -7 20 -56z m70 -19
c0 -62 -2 -73 -15 -69 -11 5 -15 23 -15 75 0 55 3 69 15 69 12 0 15 -15 15
-75z m72 -19 c-3 -77 -6 -94 -18 -89 -11 4 -14 26 -14 94 0 78 2 89 18 89 15
0 17 -10 14 -94z m78 -38 c0 -130 0 -131 -20 -113 -18 16 -20 31 -20 132 0
106 1 113 20 113 19 0 20 -7 20 -132z m70 -40 l-1 -173 -19 24 c-18 21 -20 39
-20 172 0 142 1 149 20 149 19 0 20 -7 20 -172z m70 -60 c-1 -207 -2 -230 -15
-208 -22 38 -22 440 0 440 13 0 15 -32 15 -232z m-650 50 l-1 -53 -19 35 c-25
46 -25 70 0 70 18 0 20 -7 20 -52z m69 -95 c0 -143 -1 -146 -15 -103 -8 26
-14 87 -14 148 0 84 3 102 15 102 13 0 15 -23 14 -147z m71 -14 c0 -128 -2
-148 -15 -143 -12 5 -15 32 -15 155 0 128 2 148 15 143 12 -5 15 -32 15 -155z
m-212 139 c-7 -19 -38 -22 -38 -4 0 10 9 16 21 16 12 0 19 -5 17 -12z m-78
-12 c0 -16 -18 -31 -27 -22 -8 8 5 36 17 36 5 0 10 -6 10 -14z m354 8 c13 -5
16 -27 16 -134 0 -114 -2 -129 -20 -145 -20 -18 -20 -17 -20 133 0 84 2 152 4
152 2 0 11 -3 20 -6z m-424 -38 c0 -8 -7 -16 -15 -20 -15 -5 -21 14 -8 27 11
12 23 8 23 -7z m508 -57 c2 -54 -1 -70 -17 -90 l-20 -24 -1 93 c0 84 2 93 18
90 14 -3 18 -16 20 -69z m-578 -120 c0 -147 -1 -160 -17 -157 -16 3 -18 19
-21 148 -2 127 -1 146 15 157 9 7 18 13 20 13 2 0 3 -72 3 -161z m650 125 c0
-8 -7 -14 -15 -14 -10 0 -15 10 -15 26 0 22 2 25 15 14 8 -7 15 -19 15 -26z
m-580 -160 c0 -87 -3 -114 -15 -124 -13 -11 -15 5 -15 136 1 134 2 147 15 124
10 -17 14 -59 15 -136z m-144 -101 c-3 -7 -12 -10 -21 -7 -12 5 -15 26 -15
116 0 94 3 113 18 124 16 12 17 5 20 -104 1 -64 0 -122 -2 -129z m801 202 c0
-8 -3 -15 -7 -15 -13 0 -30 25 -30 44 0 18 1 18 18 3 10 -10 19 -24 19 -32z
m-877 -115 c0 -73 -3 -90 -15 -90 -12 0 -15 14 -15 70 0 57 13 110 27 110 2 0
3 -40 3 -90z m950 -141 c0 -109 -4 -200 -8 -203 -4 -2 -14 -1 -20 3 -10 6 -12
47 -8 172 2 90 5 173 6 184 1 11 -2 34 -6 50 l-7 30 22 -19 c20 -18 21 -27 21
-217z m-672 132 c8 -23 7 -32 -4 -42 -12 -10 -14 -5 -14 30 0 49 4 51 18 12z
m-348 -38 c0 -22 -9 -48 -20 -63 l-20 -25 6 35 c6 37 24 90 30 90 2 0 4 -17 4
-37z m1090 -155 c0 -141 -1 -148 -20 -148 -19 0 -20 7 -20 173 l0 172 20 -25
c17 -22 20 -42 20 -172z m-445 128 c105 -49 174 -169 161 -280 -23 -198 -229
-311 -406 -221 -89 45 -140 124 -148 226 -9 133 58 238 183 286 54 21 154 16
210 -11z m297 -142 c-2 -91 -6 -124 -15 -121 -16 5 -22 199 -7 227 6 11 14 20
18 20 4 0 6 -57 4 -126z m-73 -31 l-1 -78 -14 55 c-10 42 -11 60 -2 78 6 12
13 22 15 22 2 0 3 -35 2 -77z m-940 -85 c-1 -87 -4 -133 -9 -118 -15 47 -10
260 6 260 2 0 4 -64 3 -142z m1214 -65 c-10 -64 -10 -60 -10 67 0 127 0 131
10 68 6 -45 6 -91 0 -135z m-1143 -85 c-1 -160 -2 -171 -16 -145 -11 20 -15
65 -17 172 -2 132 0 145 16 145 16 0 17 -15 17 -172z m70 11 c0 -97 -4 -168
-11 -181 -8 -14 -8 -23 0 -31 6 -6 11 -22 11 -35 0 -21 -2 -22 -15 -12 -12 10
-15 47 -15 216 0 175 2 204 15 204 13 0 15 -25 15 -161z m80 47 c0 -89 -3
-107 -20 -127 l-19 -24 -1 128 c0 120 1 127 20 127 19 0 20 -7 20 -104z m51
57 c0 -21 4 -47 8 -58 8 -20 -6 -55 -21 -55 -5 0 -8 34 -8 75 0 43 4 75 10 75
6 0 10 -17 11 -37z m872 -255 l-18 -33 -3 38 c-2 25 2 45 12 56 9 10 17 24 18
32 1 8 3 -3 5 -23 3 -23 -3 -49 -14 -70z m-275 -135 l-3 -78 -17 32 c-14 25
-18 56 -18 134 0 84 3 106 18 122 16 19 17 16 20 -57 2 -42 2 -111 0 -153z
m72 58 c0 -123 -3 -150 -15 -155 -13 -5 -15 16 -15 149 0 131 2 155 15 155 13
0 15 -23 15 -149z m71 27 c0 -60 0 -112 -1 -117 0 -5 -7 -11 -15 -15 -13 -5
-15 13 -15 120 0 109 2 125 16 122 13 -2 16 -20 15 -110z m79 35 c-1 -61 -14
-103 -34 -103 -3 0 -6 38 -6 85 0 78 2 85 20 85 18 0 20 -7 20 -67z m-290 -5
l-1 -43 -15 28 c-16 29 -13 57 6 57 5 0 10 -19 10 -42z m-370 -133 c0 -122 -2
-145 -15 -145 -13 0 -15 21 -15 133 0 90 4 137 12 145 7 7 13 12 15 12 2 0 3
-65 3 -145z m78 -18 c2 -138 1 -148 -15 -145 -16 3 -18 19 -21 151 -2 138 -1
148 15 145 16 -3 18 -19 21 -151z m59 85 c7 -21 13 -82 13 -140 0 -93 -2 -103
-17 -100 -16 3 -18 19 -21 148 -1 79 1 141 5 137 3 -4 13 -24 20 -45z m-207
-97 c0 -80 -2 -93 -15 -89 -19 8 -21 135 -3 164 7 11 14 20 15 20 2 0 3 -43 3
-95z m-140 8 c0 -7 -4 -13 -8 -13 -15 0 -32 24 -32 44 0 18 1 19 20 1 11 -10
20 -24 20 -32z m54 -19 c16 -6 23 -44 8 -44 -12 0 -32 23 -32 37 0 15 2 15 24
7z m376 -110 c0 -15 -6 -24 -15 -24 -11 0 -15 12 -15 53 l0 52 15 -29 c8 -15
15 -39 15 -52z m208 35 c-19 -13 -28 -11 -28 6 0 21 34 38 38 18 2 -9 -2 -19
-10 -24z m-60 -11 c-7 -19 -38 -22 -38 -4 0 10 9 16 21 16 12 0 19 -5 17 -12z
m-78 -18 c0 -11 -7 -20 -15 -20 -27 0 -18 30 13 39 1 1 2 -8 2 -19z"/>
<path d="M1437 5396 c-72 -20 -127 -63 -160 -126 -57 -109 -22 -252 78 -322
22 -15 65 -33 96 -39 107 -21 219 35 272 135 30 57 30 165 0 221 -57 108 -174
161 -286 131z"/>
<path d="M1395 3851 c-130 -59 -183 -213 -117 -342 89 -177 339 -182 436 -9
26 47 31 65 31 125 0 58 -5 78 -27 116 -32 54 -75 93 -125 114 -49 21 -149 19
-198 -4z"/>
<path d="M7837 6044 c-4 -4 -7 -376 -7 -826 0 -811 0 -818 -20 -818 -11 0 -20
-7 -20 -15 0 -8 9 -15 20 -15 20 0 20 -8 22 -822 3 -724 5 -823 18 -823 13 0
15 99 18 823 2 699 4 822 16 822 12 0 14 -120 15 -808 0 -444 3 -815 7 -825 3
-10 12 -16 18 -14 8 3 13 96 16 311 5 300 5 306 23 274 15 -29 17 -68 20 -308
3 -355 20 -369 27 -23 5 240 6 246 23 220 15 -23 17 -54 17 -246 0 -206 5
-249 28 -227 8 8 8 29 10 240 2 147 4 167 17 156 12 -10 15 -49 17 -204 3
-162 5 -191 18 -191 13 0 16 28 20 174 4 134 8 171 17 160 7 -9 12 -70 15
-167 3 -156 7 -180 27 -168 7 5 11 56 11 152 0 79 3 144 8 144 27 -1 32 -22
34 -153 4 -181 22 -187 26 -9 2 116 5 133 18 128 9 -3 18 -6 20 -6 2 0 4 -56
4 -124 0 -81 4 -127 11 -132 21 -13 29 21 29 129 0 87 3 107 15 107 12 0 15
-22 17 -117 2 -97 6 -118 18 -118 12 0 16 20 18 108 2 90 5 108 18 105 11 -2
16 -26 19 -107 3 -58 7 -107 10 -109 2 -2 8 -1 14 3 7 4 11 48 11 111 0 95 2
105 18 102 14 -3 18 -19 22 -108 6 -135 24 -138 28 -5 3 93 9 114 35 115 4 0
7 -47 7 -104 0 -66 4 -107 11 -112 21 -12 29 20 29 119 0 78 3 97 15 97 11 0
15 -21 17 -107 2 -88 6 -108 18 -108 12 0 16 22 20 115 4 97 8 115 22 118 15
3 17 -9 17 -107 0 -61 2 -115 6 -121 17 -28 25 12 25 124 0 115 1 124 20 129
18 5 20 -1 22 -124 4 -173 22 -171 26 3 2 122 10 158 33 158 5 0 10 -66 11
-147 3 -124 5 -148 18 -148 13 0 15 26 18 159 2 107 7 164 15 174 10 12 13
-20 17 -159 4 -146 7 -174 20 -174 13 0 15 29 18 189 2 180 8 216 33 216 5 0
9 -93 9 -206 0 -160 3 -205 13 -202 9 4 13 60 15 227 2 191 5 226 20 249 16
25 17 18 22 -221 7 -345 24 -330 30 28 4 240 7 284 22 310 17 29 17 18 18
-277 0 -300 4 -338 31 -311 6 6 10 315 10 827 1 694 3 816 15 816 12 0 14
-124 16 -822 3 -724 5 -823 18 -823 13 0 15 99 18 823 2 814 2 822 22 822 11
0 20 7 20 15 0 8 -9 15 -20 15 -20 0 -20 8 -22 823 -3 723 -5 822 -18 822 -13
0 -15 -99 -18 -822 -2 -699 -4 -823 -16 -823 -12 0 -14 122 -15 816 0 514 -3
820 -10 827 -27 27 -31 -10 -31 -311 -1 -295 -1 -306 -18 -277 -15 26 -18 70
-22 310 -6 355 -23 374 -30 33 -4 -216 -7 -239 -20 -223 -12 14 -16 63 -20
244 -6 288 -24 306 -28 29 -1 -109 -6 -198 -11 -198 -25 0 -31 36 -33 211 -3
156 -5 184 -18 184 -13 0 -15 -26 -18 -167 -2 -143 -5 -166 -17 -162 -12 5
-15 33 -15 159 0 115 -3 155 -13 164 -8 6 -17 8 -20 4 -4 -3 -7 -71 -7 -150 0
-140 -1 -143 -20 -133 -18 9 -20 23 -22 145 -4 175 -22 181 -26 9 -2 -109 -5
-125 -18 -120 -9 3 -18 6 -20 6 -2 0 -4 54 -4 119 0 110 -8 148 -25 121 -4 -6
-7 -58 -7 -116 1 -96 -1 -104 -18 -104 -18 0 -20 9 -22 113 -2 92 -6 112 -18
112 -12 0 -16 -20 -18 -108 -2 -80 -6 -107 -15 -104 -8 2 -14 38 -17 105 -3
55 -8 103 -12 107 -19 19 -28 -14 -28 -106 0 -90 -2 -100 -17 -97 -15 3 -19
18 -23 101 -7 131 -24 130 -28 0 -2 -95 -4 -103 -22 -103 -19 0 -20 7 -20 99
0 56 -4 103 -10 106 -15 9 -20 -12 -22 -110 -3 -82 -9 -104 -30 -105 -4 0 -9
48 -10 108 -2 87 -6 107 -18 107 -12 0 -16 -20 -18 -112 -2 -91 -5 -113 -17
-113 -12 0 -15 19 -15 104 0 74 -4 107 -13 115 -8 6 -17 8 -20 4 -4 -3 -7 -59
-7 -124 0 -97 -3 -118 -16 -123 -9 -3 -17 -6 -20 -6 -2 0 -5 56 -6 125 -4 171
-22 164 -26 -10 -2 -122 -4 -136 -22 -145 -19 -10 -20 -7 -20 134 0 133 -7
175 -26 145 -4 -6 -9 -77 -11 -158 -5 -155 -7 -171 -22 -171 -7 0 -12 64 -13
168 -3 141 -5 167 -18 167 -13 0 -15 -29 -18 -186 -2 -150 -5 -189 -17 -199
-13 -11 -15 7 -16 141 -2 198 -3 221 -13 237 -20 33 -26 -15 -26 -222 0 -210
-1 -224 -20 -241 -20 -18 -20 -16 -22 226 -2 154 -7 244 -13 244 -6 0 -12
-103 -15 -280 -4 -224 -8 -285 -20 -305 -14 -23 -15 3 -18 270 -1 162 -4 301
-7 309 -4 10 -8 11 -20 1 -16 -13 -22 -423 -16 -1202 3 -400 2 -438 -13 -438
-15 0 -16 70 -18 822 -3 793 -5 848 -31 822z m645 -427 c-2 -116 -6 -146 -18
-151 -12 -5 -14 18 -14 143 0 111 3 151 13 154 6 2 14 3 17 2 3 -2 4 -68 2
-148z m78 148 c0 -2 -9 -19 -20 -37 l-20 -33 0 38 c0 30 4 37 20 37 11 0 20
-2 20 -5z m70 -5 c0 -5 -9 -10 -20 -10 -11 0 -20 5 -20 10 0 6 9 10 20 10 11
0 20 -4 20 -10z m70 -16 c0 -8 -6 -11 -15 -8 -8 4 -15 12 -15 20 0 8 6 11 15
8 8 -4 15 -12 15 -20z m-292 -151 c-2 -114 -6 -157 -15 -161 -10 -3 -13 32
-13 151 0 84 3 157 7 160 19 20 23 -7 21 -150z m361 148 c7 -5 11 -14 7 -19
-9 -15 -36 -4 -36 14 0 16 9 18 29 5z m-429 -153 c0 -124 -2 -140 -14 -128
-21 22 -26 248 -5 261 8 5 15 9 17 9 1 0 2 -64 2 -142z m505 -23 c0 -126 -3
-150 -15 -150 -13 0 -15 25 -16 153 0 134 2 152 15 150 14 -3 16 -25 16 -153z
m-580 68 c-2 -32 -4 -69 -4 -82 -1 -20 -4 -22 -13 -13 -16 16 -19 122 -5 140
18 23 24 12 22 -45z m505 -74 c0 -100 -3 -130 -12 -127 -18 6 -23 161 -7 216
6 23 13 42 15 42 2 0 4 -59 4 -131z m138 119 c8 -8 12 -50 12 -124 0 -90 -3
-113 -15 -118 -13 -5 -15 11 -15 102 0 59 -3 117 -6 130 -7 24 5 29 24 10z
m-732 -86 c-15 -15 -16 -15 -16 4 0 28 24 52 28 28 2 -9 -3 -24 -12 -32z m814
-52 c0 -60 -3 -79 -15 -84 -13 -4 -15 9 -15 91 0 84 2 94 15 83 11 -9 15 -33
15 -90z m-884 -22 l-16 -22 0 25 c0 30 23 59 28 35 2 -9 -4 -26 -12 -38z m949
28 c18 -27 11 -76 -11 -76 -9 0 -13 15 -12 50 0 28 2 50 4 50 2 0 11 -11 19
-24z m-1008 -283 c-2 -164 -5 -208 -15 -208 -20 0 -24 349 -5 388 7 15 15 27
18 27 2 0 3 -93 2 -207z m1078 177 c8 -16 15 -42 15 -57 l-1 -28 -19 35 c-18
32 -27 80 -15 80 2 0 11 -13 20 -30z m-430 -34 c266 -126 175 -529 -120 -529
-299 -1 -385 410 -111 534 61 28 167 26 231 -5z m-575 -197 c0 -117 -2 -139
-15 -139 -13 0 -15 23 -15 151 0 134 2 150 15 139 12 -10 15 -40 15 -151z
m-141 -56 c0 -107 -3 -141 -10 -124 -17 43 -11 271 7 271 2 0 4 -66 3 -147z
m211 32 c0 -73 -3 -94 -15 -99 -13 -5 -15 11 -15 106 0 97 2 109 15 98 11 -9
15 -35 15 -105z m1002 -30 c0 -56 -5 -111 -11 -121 -8 -14 -10 15 -10 121 0
103 2 135 10 122 6 -10 11 -65 11 -122z m-57 -82 c2 -152 0 -184 -14 -212 -17
-32 -17 -27 -18 160 -1 173 7 253 23 236 3 -3 7 -86 9 -184z m-888 102 c-3
-84 -17 -85 -17 0 0 36 4 65 9 65 5 0 9 -29 8 -65z m813 -86 c0 -134 -2 -150
-15 -139 -12 10 -15 40 -15 151 0 117 2 139 15 139 13 0 15 -23 15 -151z m-70
25 c0 -94 -2 -105 -15 -94 -11 9 -15 35 -15 106 0 77 3 94 15 94 12 0 15 -18
15 -106z m-74 -42 c-13 -12 -16 8 -9 69 l8 64 3 -64 c2 -35 1 -66 -2 -69z
m-867 -217 l0 -30 -19 35 c-11 19 -19 49 -19 65 l0 30 19 -35 c11 -19 19 -48
19 -65z m290 -110 c-1 -147 -2 -164 -16 -156 -14 7 -16 31 -14 157 1 136 6
163 29 164 1 0 2 -74 1 -165z m-75 1 c3 -119 -2 -143 -21 -113 -12 18 -11 231
1 239 6 4 12 5 14 3 2 -2 5 -60 6 -129z m144 38 c2 -60 -2 -102 -12 -129 -14
-39 -15 -36 -15 93 -1 103 2 133 12 130 8 -3 13 -33 15 -94z m366 -62 c-2
-135 -4 -157 -18 -160 -14 -3 -16 15 -16 151 0 84 3 157 7 160 23 24 28 -1 27
-151z m-809 112 c12 -28 15 -80 15 -235 0 -192 -1 -199 -20 -199 -19 0 -20 7
-20 235 0 129 2 235 5 235 3 0 12 -16 20 -36z m1245 -199 c0 -228 -1 -235 -20
-235 -19 0 -20 7 -20 200 0 166 3 205 17 235 9 19 18 35 20 35 2 0 3 -106 3
-235z m-1017 36 c-2 -2 -9 2 -18 9 -20 16 -22 166 -2 173 9 3 13 -21 17 -87 3
-50 4 -93 3 -95z m503 -118 c-3 -7 -10 -13 -16 -13 -16 0 -14 297 3 303 9 3
13 -30 15 -137 1 -77 0 -146 -2 -153z m140 285 c5 -7 9 -64 9 -126 1 -96 -1
-115 -16 -122 -15 -8 -16 3 -16 125 0 126 5 153 23 123z m-716 -49 c0 -45 -2
-50 -15 -39 -9 7 -15 29 -15 51 0 28 4 39 15 39 11 0 15 -12 15 -51z m950 7
c0 -8 -9 -24 -20 -37 -16 -20 -19 -21 -20 -6 0 20 21 57 32 57 5 0 8 -6 8 -14z
m-150 -102 c0 -34 -5 -56 -15 -64 -9 -7 -17 -11 -18 -9 -1 2 -1 40 1 84 3 72
5 78 18 60 8 -10 14 -42 14 -71z m-870 -140 c0 -147 -1 -154 -20 -154 -19 0
-20 7 -20 178 l1 177 19 -24 c18 -21 20 -39 20 -177z m1090 21 c0 -168 -1
-175 -20 -175 -19 0 -20 7 -20 153 0 122 3 157 16 175 8 12 17 22 20 22 2 0 4
-79 4 -175z m-164 107 c-15 -15 -16 -15 -16 4 0 28 24 52 28 28 2 -9 -3 -24
-12 -32z m-856 -163 c0 -99 -3 -119 -15 -119 -13 0 -15 21 -15 131 0 116 2
130 15 119 12 -10 15 -38 15 -131z m950 11 c0 -123 -1 -130 -20 -130 -19 0
-20 7 -20 118 0 112 7 142 32 142 4 0 8 -58 8 -130z m-660 41 c0 -6 -7 -11
-15 -11 -9 0 -15 10 -15 26 0 23 2 24 15 10 8 -8 15 -19 15 -25z m220 4 c0
-29 -4 -35 -21 -35 -11 0 -19 3 -17 8 21 42 32 62 35 62 1 0 3 -16 3 -35z
m-440 -81 c0 -77 -3 -94 -15 -94 -12 0 -15 18 -15 100 0 84 2 98 15 94 12 -5
15 -26 15 -100z m800 6 c0 -82 -3 -100 -15 -100 -12 0 -15 17 -15 94 0 88 3
97 28 105 1 1 2 -44 2 -99z m-509 55 c-1 -15 -24 -12 -29 3 -3 9 2 13 12 10
10 -1 17 -7 17 -13z m79 -3 c0 -14 -11 -21 -26 -15 -21 8 -17 23 6 23 11 0 20
-4 20 -8z m-306 -8 c12 -5 16 -21 16 -75 0 -62 -2 -69 -20 -69 -18 0 -20 7
-20 75 0 41 2 75 4 75 2 0 11 -3 20 -6z m666 -69 c0 -68 -2 -75 -20 -75 -18 0
-20 7 -20 69 0 65 5 77 33 80 4 1 7 -33 7 -74z m-596 39 c12 -5 16 -20 16 -60
0 -47 -2 -54 -20 -54 -18 0 -20 7 -20 60 0 33 2 60 4 60 2 0 11 -3 20 -6z
m526 -54 c0 -53 -2 -60 -20 -60 -18 0 -20 7 -20 54 0 50 6 62 33 65 4 1 7 -26
7 -59z m-440 -15 c0 -33 -4 -45 -15 -45 -11 0 -15 12 -15 45 0 33 4 45 15 45
11 0 15 -12 15 -45z m366 0 c1 -38 -2 -45 -17 -45 -16 0 -19 8 -19 45 0 36 3
45 18 45 14 0 17 -9 18 -45z m-296 -11 c0 -24 -5 -34 -15 -34 -11 0 -15 11
-15 40 0 31 3 38 15 34 9 -4 15 -19 15 -40z m220 6 c0 -29 -4 -40 -15 -40 -10
0 -15 10 -15 34 0 29 6 38 28 45 1 1 2 -17 2 -39z m-142 -8 c3 -27 0 -32 -17
-32 -17 0 -21 6 -21 36 0 28 3 35 18 32 11 -2 18 -14 20 -36z m72 3 c0 -28 -4
-35 -20 -35 -15 0 -20 7 -20 28 0 32 7 42 27 42 8 0 13 -12 13 -35z m-650
-267 c-1 -181 -3 -207 -20 -238 l-19 -35 -1 238 c0 230 1 237 20 237 19 0 20
-7 20 -202z m70 49 c0 -141 -2 -155 -20 -172 -20 -18 -20 -17 -20 153 0 165 1
172 20 172 19 0 20 -7 20 -153z m70 34 c0 -96 -3 -120 -15 -125 -13 -5 -15 13
-15 119 0 104 2 125 15 125 12 0 15 -20 15 -119z m68 27 c-2 -62 -7 -93 -15
-96 -10 -3 -13 20 -13 92 0 80 3 96 15 96 13 0 15 -15 13 -92z m82 27 c0 -54
-3 -66 -20 -75 -19 -10 -20 -8 -20 65 0 68 2 75 20 75 18 0 20 -7 20 -65z m68
13 c-2 -41 -7 -54 -20 -56 -15 -3 -18 5 -18 52 0 50 2 56 21 56 18 0 20 -5 17
-52z m72 13 c0 -25 -5 -41 -15 -45 -12 -4 -15 4 -15 39 0 33 4 45 15 45 11 0
15 -11 15 -39z m70 14 c0 -14 0 -28 1 -32 0 -5 -7 -9 -15 -11 -12 -3 -16 5
-16 32 0 25 4 36 15 36 9 0 15 -9 15 -25z m80 -5 c0 -23 -4 -30 -20 -30 -16 0
-20 7 -20 30 0 23 4 30 20 30 16 0 20 -7 20 -30z m70 0 c0 -23 -4 -30 -20 -30
-16 0 -20 7 -20 30 0 23 4 30 20 30 16 0 20 -7 20 -30z m70 -5 c0 -24 -5 -35
-15 -35 -10 0 -15 11 -15 35 0 24 5 35 15 35 10 0 15 -11 15 -35z m80 -3 c0
-43 -6 -53 -26 -45 -9 3 -14 20 -14 44 0 32 3 39 20 39 17 0 20 -7 20 -38z
m70 -18 c0 -47 -3 -55 -17 -52 -14 2 -19 15 -21 56 -3 47 -1 52 17 52 19 0 21
-6 21 -56z m70 -19 c0 -73 -1 -75 -20 -65 -17 9 -20 21 -20 75 0 58 2 65 20
65 18 0 20 -7 20 -75z m70 -21 c0 -72 -3 -95 -12 -92 -9 3 -14 34 -16 96 -2
77 0 92 13 92 12 0 15 -16 15 -96z m80 -36 c0 -130 0 -131 -20 -113 -18 16
-20 31 -20 132 0 106 1 113 20 113 19 0 20 -7 20 -132z m70 -40 c0 -170 0
-171 -20 -153 -18 17 -20 31 -20 172 0 146 1 153 20 153 19 0 20 -7 20 -172z
m70 -65 l-1 -238 -19 35 c-17 31 -19 57 -20 238 0 195 1 202 20 202 19 0 20
-7 20 -237z m-728 -40 c-3 -124 -5 -136 -17 -113 -19 34 -21 246 -2 253 6 2
14 3 17 2 3 -2 4 -65 2 -142z m72 5 c-2 -119 -5 -144 -17 -146 -13 -3 -15 18
-16 142 -2 134 0 146 16 146 17 0 18 -12 17 -142z m76 20 c-1 -86 -5 -128 -14
-140 -7 -10 -15 -18 -17 -18 -2 0 -4 63 -4 140 0 127 2 140 18 140 15 0 17
-12 17 -122z m70 50 c-1 -40 -6 -70 -15 -82 -14 -18 -15 -12 -15 62 0 66 3 82
15 82 12 0 15 -13 15 -62z m-291 0 l0 -53 -16 38 c-15 37 -12 67 7 67 6 0 10
-23 9 -52z m360 39 c8 -11 6 -18 -9 -32 -20 -18 -20 -17 -20 13 0 34 10 41 29
19z m-429 -26 c0 -12 -29 -35 -36 -28 -11 10 5 37 21 37 8 0 15 -4 15 -9z
m508 -14 c3 -16 1 -17 -17 -7 -25 13 -28 33 -4 28 10 -2 19 -11 21 -21z m-588
-42 c-16 -19 -30 -19 -30 0 0 17 33 38 38 24 2 -5 -2 -16 -8 -24z m660 -1 c0
-12 -4 -12 -20 -4 -11 6 -20 17 -20 26 0 12 4 12 20 4 11 -6 20 -17 20 -26z
m-730 -214 c0 -173 -2 -200 -15 -200 -13 0 -15 26 -15 188 0 133 4 192 12 200
7 7 13 12 14 12 2 0 3 -90 4 -200z m800 15 c0 -137 -2 -162 -15 -162 -13 0
-15 26 -15 175 0 154 2 173 15 162 12 -10 15 -43 15 -175z m-870 -45 c0 -136
-2 -160 -15 -160 -13 0 -15 23 -15 148 0 102 4 152 12 160 7 7 13 12 15 12 2
0 3 -72 3 -160z m946 96 c-3 -12 -6 -65 -6 -118 0 -80 -3 -98 -15 -98 -13 0
-15 22 -15 143 l1 142 20 -24 c12 -15 18 -33 15 -45z m-146 -86 c0 -100 -2
-120 -15 -120 -12 0 -15 19 -15 108 0 95 8 132 27 132 2 0 3 -54 3 -120z
m-872 -55 c1 -86 -1 -105 -13 -105 -9 0 -15 10 -16 23 0 12 -3 46 -5 75 -2 35
1 63 11 83 9 16 17 29 19 29 1 0 3 -47 4 -105z m1077 76 c10 -20 13 -48 11
-83 -2 -29 -5 -59 -5 -65 -1 -7 -7 -13 -14 -13 -10 0 -13 24 -14 95 0 52 1 95
3 95 2 0 10 -13 19 -29z m-860 -100 c3 -65 -9 -120 -23 -107 -4 4 -8 58 -9
119 -1 106 0 110 14 83 9 -16 17 -59 18 -95z m448 56 c160 -94 190 -311 60
-441 -58 -57 -116 -81 -198 -80 -84 1 -128 18 -188 73 -150 138 -102 396 87
465 65 25 182 16 239 -17z m133 -8 c1 -40 0 -40 -19 -21 -16 16 -17 23 -8 41
17 32 26 26 27 -20z m-867 -241 c0 -89 -4 -135 -9 -123 -16 37 -11 265 6 265
2 0 4 -64 3 -142z m1214 2 c0 -60 -5 -115 -11 -126 -9 -15 -11 15 -11 126 0
111 2 141 11 126 6 -11 11 -66 11 -126z m-274 -197 c0 -94 -2 -113 -11 -93
-16 36 -27 161 -17 188 20 51 29 19 28 -95z m71 -72 c0 -155 -3 -191 -15 -201
-13 -11 -15 11 -15 189 0 172 2 201 15 201 13 0 15 -28 15 -189z m72 37 c3
-126 1 -145 -14 -163 -17 -19 -18 -13 -18 143 0 133 3 162 14 162 12 0 15 -27
18 -142z m75 46 c1 -58 -3 -83 -17 -106 l-18 -30 3 109 c1 59 3 109 4 110 0 1
7 0 14 -2 8 -4 13 -31 14 -81z m-1089 -36 l0 -103 -19 37 c-13 26 -17 50 -14
85 2 26 4 56 5 66 0 9 7 17 15 17 11 0 14 -19 13 -102z m72 -49 c0 -125 -2
-140 -15 -129 -12 10 -15 39 -15 141 0 108 2 129 15 129 13 0 15 -22 15 -141z
m70 -40 c0 -151 -2 -170 -15 -159 -12 10 -15 42 -15 171 0 135 2 159 15 159
13 0 15 -26 15 -171z m73 79 c-2 -126 -1 -122 -17 -144 -13 -17 -14 -4 -12
106 2 69 4 126 5 128 0 1 7 2 14 2 9 0 12 -24 10 -92z m65 12 c10 -17 10 -25
-3 -43 -8 -12 -15 -19 -16 -17 -4 39 -5 80 0 80 3 0 12 -9 19 -20z m226 -253
c0 -116 -3 -142 -15 -142 -11 0 -15 23 -17 115 -2 104 8 170 27 170 3 0 6 -64
5 -143z m76 -3 c0 -127 -2 -145 -16 -142 -13 2 -16 25 -17 146 -2 129 0 142
16 142 15 0 17 -14 17 -146z m70 -16 c0 -98 -3 -118 -15 -118 -13 0 -15 22
-15 138 1 123 2 135 15 118 11 -15 15 -50 15 -138z m-220 -38 c0 -64 -3 -80
-15 -80 -12 0 -15 14 -15 68 0 57 10 92 27 92 2 0 3 -36 3 -80z m-212 5 c-11
-12 -38 8 -38 28 l0 21 22 -21 c12 -13 19 -25 16 -28z m652 26 c0 -18 -27 -37
-38 -26 -5 4 26 45 35 45 1 0 3 -9 3 -19z m-147 -83 c-2 -5 -11 -8 -19 -8 -10
0 -14 13 -13 53 l0 52 18 -45 c11 -25 17 -48 14 -52z m-449 46 c9 -3 16 -13
16 -20 0 -12 -4 -12 -20 -4 -11 6 -20 15 -20 20 0 12 3 12 24 4z m526 -2 c0
-10 -22 -32 -32 -32 -13 0 -9 28 5 33 19 8 27 8 27 -1z m-440 -27 c0 -16 -6
-25 -15 -25 -18 0 -20 21 -3 38 17 17 18 16 18 -13z"/>
<path d="M8530 5401 c-84 -17 -155 -74 -188 -150 -23 -55 -20 -148 7 -204 49
-101 165 -161 270 -139 220 46 280 321 100 451 -52 38 -127 54 -189 42z"/>
<path d="M8462 3845 c-85 -44 -134 -124 -135 -219 0 -72 21 -127 66 -174 53
-56 102 -76 182 -76 83 0 132 21 188 83 103 114 76 293 -57 376 -40 24 -62 30
-120 33 -61 3 -78 0 -124 -23z"/>
<path d="M2437 5733 c-4 -3 -7 -324 -7 -713 0 -737 0 -730 42 -730 17 0 18 34
18 725 l0 725 -23 0 c-13 0 -27 -3 -30 -7z"/>
<path d="M2680 3395 l0 -425 2120 0 2120 0 0 425 0 425 -2120 0 -2120 0 0
-425z"/>
<path d="M2860 2745 l0 -195 -33 0 c-42 0 -57 15 -57 57 0 74 -56 153 -135
189 -39 19 -67 24 -127 24 l-78 0 0 30 c0 23 -4 30 -20 30 -19 0 -20 -7 -20
-160 0 -153 1 -160 20 -160 16 0 20 7 20 35 l0 35 59 0 c72 0 86 -11 95 -78 7
-54 44 -117 89 -152 33 -26 107 -50 154 -50 l33 0 0 -55 0 -55 -65 0 c-37 0
-65 -4 -65 -10 0 -6 28 -10 65 -10 58 0 65 -2 65 -20 0 -20 7 -20 300 -20
l300 0 0 30 0 30 410 0 410 0 0 -30 0 -30 555 0 555 0 0 30 0 30 410 0 410 0
0 -30 0 -30 264 0 c255 0 264 1 269 20 4 17 14 20 66 20 80 0 79 18 -1 22
l-63 3 -3 51 -3 51 59 5 c131 12 232 112 232 230 0 17 8 31 19 38 12 6 127 10
305 10 l285 0 3 -32 c2 -22 9 -34 21 -36 16 -3 17 10 17 157 0 154 -1 161 -20
161 -16 0 -20 -7 -20 -30 l0 -30 -301 0 c-200 0 -315 -4 -340 -12 -80 -23
-158 -118 -159 -191 0 -49 -16 -67 -60 -67 l-40 0 0 195 0 195 -205 0 -205 0
0 -60 0 -60 145 0 145 0 0 -55 0 -55 -310 0 -310 0 0 55 0 55 140 0 140 0 0
60 0 60 -1475 0 -1475 0 0 -60 0 -60 140 0 140 0 0 -55 0 -55 -310 0 -310 0 0
55 0 55 145 0 145 0 0 60 0 60 -210 0 -210 0 0 -195z m2033 -175 c31 0 57 -4
57 -10 0 -6 -28 -10 -65 -10 -50 0 -65 -3 -65 -14 0 -8 10 -16 23 -18 18 -2
23 -10 25 -40 l3 -38 -65 0 -66 0 0 40 c0 36 3 40 25 40 16 0 25 6 25 15 0 12
-14 15 -65 15 -36 0 -65 4 -65 10 0 9 116 19 155 13 11 -1 46 -3 78 -3z m-33
-158 c0 -10 6 -24 13 -32 6 -7 -1 -4 -17 8 -32 24 -75 29 -94 10 -9 -9 -12 -7
-12 10 0 20 5 22 55 22 46 0 55 -3 55 -18z m-18 -39 c25 -23 23 -68 -4 -87
-32 -23 -54 -20 -77 11 -46 57 27 125 81 76z m48 -43 c0 -32 -38 -80 -62 -80
-7 0 -4 6 7 12 30 16 45 39 45 70 0 15 2 28 5 28 3 0 5 -14 5 -30z m-116 -79
c-3 -3 -15 6 -27 18 l-22 24 27 -19 c14 -10 24 -21 22 -23z"/>
<path d="M2340 2851 c0 -28 -3 -30 -42 -33 l-43 -3 -3 -48 c-5 -83 -61 -73
-64 12 l-1 46 -6 -55 c-6 -50 -8 -55 -31 -55 -23 0 -25 5 -31 55 l-6 55 -1
-46 c-3 -85 -61 -96 -64 -12 l-1 48 -4 -42 c-8 -79 -63 -87 -63 -8 0 25 -4 45
-10 45 -5 0 -10 -20 -10 -45 0 -83 -59 -70 -62 14 l-1 46 -6 -55 c-6 -50 -8
-55 -31 -55 -23 0 -25 5 -31 55 l-6 55 -1 -46 c-3 -85 -61 -96 -64 -12 l-1 48
-4 -42 c-8 -79 -63 -87 -63 -8 0 25 -4 45 -10 45 -5 0 -10 -20 -10 -45 0 -83
-59 -70 -62 14 l-1 46 -6 -55 c-6 -50 -8 -55 -31 -55 -23 0 -25 5 -31 55 l-6
55 -1 -46 c-3 -85 -61 -96 -64 -12 l-1 48 -6 -44 c-11 -81 -66 -79 -74 2 l-4
42 -1 -48 c-3 -84 -61 -73 -64 12 l-1 46 -6 -55 c-6 -50 -8 -55 -31 -55 -23 0
-25 5 -31 55 l-6 55 -1 -46 c-3 -84 -62 -97 -62 -14 0 25 -4 45 -10 45 -5 0
-10 -20 -10 -45 0 -79 -55 -71 -63 8 l-4 42 -1 -48 c-3 -84 -61 -73 -64 12
l-1 46 -6 -55 c-6 -50 -8 -55 -31 -55 -23 0 -25 5 -31 55 l-6 55 -1 -46 c-3
-84 -62 -97 -62 -14 0 25 -4 45 -10 45 -5 0 -10 -20 -10 -45 0 -79 -55 -71
-63 8 l-4 42 -1 -48 c-3 -83 -62 -74 -62 9 l0 44 -55 0 c-51 0 -56 -2 -67 -27
-14 -36 -14 -114 1 -141 l12 -22 854 0 855 0 0 -36 c0 -28 3 -35 18 -32 15 3
17 20 20 161 2 152 2 157 -18 157 -15 0 -20 -7 -20 -29z"/>
<path d="M7700 2720 c0 -136 2 -160 15 -160 10 0 15 11 15 35 l0 35 859 0 859
0 11 31 c15 43 14 83 -3 124 -15 34 -17 35 -70 35 l-55 0 -3 -52 c-3 -46 -6
-53 -25 -56 -24 -3 -29 8 -36 78 -3 25 -4 21 -5 -17 -2 -42 -6 -53 -22 -58
-31 -10 -40 2 -42 58 l-2 52 -3 -47 c-7 -83 -63 -95 -63 -13 0 25 -4 45 -10
45 -5 0 -10 -20 -10 -45 0 -83 -59 -70 -62 14 l-1 46 -6 -55 c-6 -50 -8 -55
-31 -55 -23 0 -25 5 -31 55 l-6 55 -1 -46 c-3 -85 -61 -96 -64 -12 l-1 48 -4
-42 c-8 -79 -63 -87 -63 -8 0 25 -4 45 -10 45 -5 0 -10 -20 -10 -45 0 -83 -59
-70 -62 14 l-1 46 -6 -55 c-6 -50 -8 -55 -31 -55 -23 0 -25 5 -31 55 l-6 55
-1 -46 c-3 -85 -61 -96 -64 -12 l-1 48 -4 -42 c-8 -79 -63 -87 -63 -8 0 25 -4
45 -10 45 -5 0 -10 -20 -10 -45 0 -83 -59 -70 -62 14 l-1 46 -6 -55 c-6 -50
-8 -55 -31 -55 -23 0 -25 5 -31 55 l-6 55 -1 -46 c-3 -85 -61 -96 -64 -12 l-1
48 -6 -44 c-11 -81 -66 -79 -74 2 l-4 42 -1 -48 c-3 -84 -61 -73 -64 12 l-1
46 -6 -55 c-6 -50 -8 -55 -31 -55 -23 0 -25 5 -31 55 l-6 55 -1 -46 c-3 -85
-61 -96 -64 -12 l-1 48 -4 -42 c-8 -81 -63 -83 -74 -2 l-6 44 -1 -48 c-3 -84
-61 -73 -64 12 l-1 46 -6 -55 c-6 -50 -8 -55 -31 -55 -23 0 -25 4 -28 53 l-3
52 -45 0 c-42 0 -44 1 -44 30 0 20 -5 30 -15 30 -13 0 -15 -24 -15 -160z"/>
<path d="M3480 2160 l0 -50 -488 0 -487 0 -125 -125 -125 -125 2550 0 2550 0
-125 125 -125 125 -457 0 -458 0 0 50 0 50 -390 0 -390 0 0 -50 0 -50 -575 0
-575 0 0 50 0 50 -390 0 -390 0 0 -50z"/>
<path d="M2252 1673 l3 -158 2548 -3 2547 -2 0 160 0 160 -2550 0 -2551 0 3
-157z"/>
<path d="M272 1458 c3 -20 10 -23 50 -26 47 -3 48 -4 139 -115 51 -62 95 -116
100 -121 4 -4 63 46 132 113 88 86 131 121 148 121 21 0 16 -8 -41 -67 -147
-153 -167 -180 -44 -60 103 101 136 128 154 125 20 -3 9 -18 -91 -123 l-113
-120 125 123 c85 83 133 122 148 122 22 0 22 -1 -7 -37 -17 -21 -54 -60 -82
-88 -28 -27 -61 -63 -72 -80 -11 -16 32 23 97 88 69 69 126 117 137 117 19 0
19 0 0 -27 -11 -16 -35 -41 -52 -58 -18 -16 -59 -61 -93 -100 -41 -48 -19 -29
70 58 90 90 136 128 149 125 15 -2 4 -19 -56 -83 -140 -150 -145 -160 -20 -37
l125 122 121 0 120 0 99 -121 98 -120 121 120 c101 100 126 121 151 121 28 0
24 -6 -80 -112 -61 -61 -92 -97 -70 -80 22 17 76 67 120 111 57 58 87 81 105
81 22 0 16 -9 -55 -82 -152 -157 -169 -183 -34 -50 102 100 141 133 157 130
18 -2 4 -22 -90 -123 l-111 -120 125 123 c95 94 130 123 147 120 18 -3 7 -19
-81 -113 l-101 -110 115 113 c86 85 120 113 137 110 18 -3 8 -17 -72 -103
-136 -148 -138 -158 -3 -17 l118 122 83 0 83 0 117 -140 c65 -78 120 -138 123
-136 3 3 -3 16 -14 28 -27 32 -163 187 -193 221 l-25 27 40 -1 c38 0 42 -4
132 -115 51 -62 98 -114 104 -114 6 0 3 10 -8 23 -49 55 -151 174 -163 190
-12 15 -10 17 21 17 31 0 41 -9 111 -96 67 -82 76 -98 66 -112 -7 -10 39 34
103 96 88 88 120 113 137 110 20 -3 7 -20 -95 -128 l-118 -125 130 128 c92 89
138 127 154 127 l23 0 -23 -27 c-14 -16 -58 -64 -100 -108 -62 -65 -55 -60 37
28 87 84 118 107 140 107 26 0 24 -4 -47 -77 -140 -145 -155 -169 -30 -45 92
89 132 122 150 122 22 0 19 -6 -35 -62 -142 -148 -161 -174 -45 -60 88 86 132
122 149 122 19 0 6 -18 -85 -117 l-108 -118 120 118 119 117 81 0 80 0 104
-126 c58 -69 111 -133 117 -141 7 -9 16 -14 19 -10 4 4 -40 60 -97 124 -147
167 -138 153 -96 153 34 0 42 -7 133 -119 l97 -120 127 120 c89 83 134 119
151 119 20 0 14 -10 -51 -77 -140 -145 -155 -169 -30 -45 88 86 132 122 149
122 20 0 5 -19 -90 -122 l-113 -123 126 123 c98 98 130 123 148 120 21 -3 11
-16 -81 -113 -57 -60 -90 -98 -74 -84 17 13 66 62 110 107 70 74 116 104 131
89 3 -2 -32 -45 -78 -94 -136 -145 -140 -156 -8 -25 71 70 132 122 142 122 19
0 19 -1 -1 -28 -11 -16 -27 -35 -36 -42 -8 -7 -48 -49 -87 -94 -61 -69 -54
-64 53 42 l124 122 121 0 120 0 98 -121 98 -121 123 121 c86 85 129 121 145
121 l23 0 -23 -27 c-14 -16 -65 -71 -115 -123 -91 -96 -55 -67 90 73 56 53 88
77 105 77 22 0 14 -11 -60 -87 -142 -146 -153 -166 -20 -35 92 89 132 122 150
122 22 0 18 -7 -40 -67 -147 -153 -167 -180 -44 -60 98 96 136 128 152 125 18
-2 6 -20 -80 -113 l-101 -110 114 113 c80 78 121 112 138 112 20 0 8 -17 -80
-112 l-103 -113 115 113 114 112 165 -1 165 0 60 -75 c33 -41 66 -82 72 -91 7
-9 16 -14 19 -10 3 3 -26 43 -66 89 l-72 83 32 3 c23 3 36 -3 49 -20 11 -13
37 -46 59 -74 l41 -51 -38 -37 -38 -37 -92 106 c-51 58 -95 105 -97 105 -4 0
124 -161 177 -224 4 -4 63 46 132 113 88 86 131 121 148 121 21 0 16 -8 -41
-67 -147 -153 -167 -180 -44 -60 104 102 136 128 154 125 21 -3 11 -16 -85
-118 l-109 -115 114 110 c63 61 117 114 121 118 3 5 17 7 29 5 20 -3 11 -16
-78 -111 -56 -59 -102 -111 -102 -115 0 -4 52 46 116 111 71 71 124 117 136
117 18 0 16 -4 -12 -40 -17 -22 -35 -42 -40 -45 -4 -2 -40 -42 -81 -87 -62
-70 -53 -64 57 45 72 71 137 127 148 127 17 0 17 -3 -5 -30 -13 -16 -62 -71
-108 -122 -81 -89 -80 -88 40 30 l124 122 121 0 121 0 94 -116 c52 -64 93
-120 91 -126 -2 -6 57 46 130 116 97 91 140 126 158 126 21 0 10 -15 -80 -106
-58 -58 -96 -102 -85 -96 11 6 63 54 115 106 67 68 102 96 118 96 20 0 6 -20
-94 -127 l-118 -128 131 128 c97 96 135 128 151 125 18 -2 4 -21 -85 -118
l-107 -115 121 118 c90 89 125 118 141 115 19 -3 8 -18 -75 -108 l-96 -105
109 108 c76 74 116 107 133 107 20 0 16 -8 -40 -70 -131 -145 -148 -171 -34
-53 l117 123 126 0 127 -1 93 -114 c52 -63 99 -115 105 -115 6 0 2 10 -9 23
-59 66 -151 174 -163 190 -12 15 -10 17 21 17 31 0 41 -9 111 -96 67 -82 76
-98 66 -112 -7 -10 39 34 103 96 89 88 120 113 138 110 20 -3 9 -18 -91 -123
l-113 -120 125 123 c85 83 133 122 148 122 22 0 22 -1 -7 -37 -17 -21 -60 -67
-97 -103 -37 -36 -71 -74 -77 -85 -6 -11 46 35 114 103 90 89 130 122 148 122
22 0 16 -9 -50 -77 -145 -151 -163 -177 -35 -50 96 93 137 127 155 127 22 0
19 -6 -35 -63 -142 -147 -161 -173 -45 -59 88 86 132 122 149 122 19 0 6 -18
-85 -117 l-108 -118 120 118 119 117 81 0 80 0 104 -126 c58 -69 111 -133 117
-141 7 -9 16 -14 19 -10 4 4 -40 60 -97 124 -147 167 -138 153 -96 153 34 0
42 -7 133 -120 l97 -119 106 98 c58 54 115 108 125 120 11 11 31 21 45 21 23
0 19 -7 -49 -77 -140 -145 -155 -169 -29 -45 93 92 131 123 147 120 17 -2 2
-23 -91 -123 l-111 -120 126 123 c100 99 130 123 149 120 21 -3 13 -14 -75
-105 -54 -57 -95 -103 -91 -103 3 0 53 47 110 105 67 68 111 105 125 105 l21
0 -19 -27 c-11 -16 -37 -44 -57 -63 -20 -19 -60 -62 -88 -95 -30 -36 1 -10 75
63 87 86 131 123 144 120 15 -2 4 -19 -56 -83 -147 -158 -153 -168 -25 -42
l130 127 93 0 c91 0 92 0 92 25 l0 25 -4731 0 -4730 0 3 -22z m253 -118 c63
-81 85 -102 85 -84 0 4 -26 36 -58 73 -92 106 -90 101 -51 101 30 -1 40 -9 88
-70 30 -39 56 -70 57 -70 13 0 -3 26 -47 79 l-51 61 34 0 c27 -1 39 -8 66 -45
18 -25 38 -45 44 -45 6 0 -6 20 -26 45 l-37 45 30 0 c20 0 36 -8 49 -25 11
-13 22 -21 26 -18 3 4 -1 15 -11 25 -15 17 -14 18 25 18 23 0 42 -1 42 -3 0
-1 -49 -51 -108 -110 l-108 -108 -98 110 -97 111 38 0 c36 -1 42 -6 108 -90z
m1051 -6 c72 -88 76 -96 61 -111 -9 -9 -18 -15 -20 -12 -2 3 -111 129 -171
197 l-19 22 35 0 c33 0 42 -7 114 -96z m59 25 c31 -39 59 -68 62 -65 3 3 -12
26 -33 52 -70 83 -71 84 -36 84 28 0 52 -22 94 -84 4 -6 10 -7 14 -4 4 4 -8
24 -27 45 l-33 38 28 3 c22 3 35 -3 52 -25 16 -19 23 -23 24 -12 0 8 -5 20
-12 27 -9 9 -4 12 26 12 l38 0 -71 -79 c-39 -43 -76 -83 -84 -89 -10 -8 -31
10 -90 79 l-78 89 34 0 c31 0 41 -8 92 -71z m1047 -1 c47 -61 54 -75 44 -91
-12 -20 -23 -10 -128 116 l-40 47 35 0 c31 0 40 -7 89 -72z m57 27 c18 -25 38
-45 43 -45 11 0 -1 18 -41 63 l-25 27 33 0 c24 0 39 -7 53 -26 11 -14 23 -23
26 -20 3 3 -3 15 -13 26 -18 20 -18 20 26 20 l43 0 -64 -65 c-35 -35 -67 -62
-71 -60 -4 3 -30 32 -59 65 l-52 60 34 0 c27 -1 39 -8 67 -45z m927 -51 c69
-85 75 -97 62 -110 -13 -13 -23 -6 -88 68 -41 46 -85 95 -99 111 l-25 27 37 0
c34 0 41 -6 113 -96z m60 26 c31 -39 59 -68 62 -65 6 5 -2 16 -66 94 l-34 41
30 0 c23 0 38 -10 67 -46 20 -25 40 -43 42 -40 3 3 -9 23 -27 46 l-32 40 31 0
c22 0 35 -7 47 -25 9 -14 20 -22 26 -19 5 3 2 14 -8 25 -17 18 -16 19 27 19
l44 0 -89 -89 -89 -89 -73 84 c-41 47 -74 87 -74 89 0 3 13 5 30 5 24 0 39
-12 86 -70z m988 -26 c64 -79 75 -98 65 -110 -6 -8 -15 -13 -19 -12 -6 3 -152
166 -179 201 -12 15 -10 17 21 17 31 0 41 -9 112 -96z m52 34 c27 -34 52 -66
56 -72 4 -6 10 -7 14 -3 4 3 -19 36 -50 72 l-58 65 36 0 c30 0 39 -6 67 -45
18 -25 36 -45 41 -45 14 0 9 12 -24 49 l-32 36 28 3 c20 3 33 -4 48 -23 23
-30 35 -27 18 4 -10 20 -8 21 26 21 l36 0 -71 -79 c-39 -43 -77 -83 -84 -90
-14 -11 -33 8 -142 138 l-27 31 35 0 c30 0 40 -8 83 -62z m1113 17 c18 -25 38
-45 43 -45 11 0 -1 18 -41 63 l-25 27 31 0 c22 0 38 -8 51 -25 11 -13 22 -21
26 -18 3 4 -1 15 -11 25 -15 17 -14 18 28 18 l43 0 -69 -70 c-58 -58 -71 -67
-76 -52 -4 10 -14 24 -23 31 -9 8 -30 31 -47 53 l-31 38 34 0 c27 -1 39 -8 67
-45z m927 -51 c72 -88 76 -96 61 -111 -9 -9 -18 -15 -20 -12 -2 3 -111 129
-171 197 l-19 22 35 0 c33 0 42 -7 114 -96z m59 25 c31 -39 59 -68 62 -65 3 3
-12 26 -33 52 -71 83 -71 84 -36 84 29 0 42 -12 99 -89 2 -2 6 -2 9 2 4 3 -8
23 -25 44 l-32 38 27 3 c20 3 33 -4 50 -25 16 -19 23 -23 24 -12 0 8 -5 20
-12 27 -9 9 -4 12 26 12 l38 0 -60 -67 c-33 -38 -71 -78 -84 -90 l-23 -22 -78
89 -78 90 34 0 c31 0 41 -8 92 -71z m1048 -1 c47 -61 53 -74 44 -90 -11 -18
-15 -16 -51 24 -21 24 -56 64 -78 91 l-40 47 35 0 c31 0 40 -7 90 -72z m56 27
c18 -25 37 -45 42 -45 15 0 10 8 -27 50 l-36 40 31 0 c22 0 39 -8 56 -27 13
-16 25 -23 25 -16 0 6 -4 15 -10 18 -21 13 -8 25 27 25 l37 0 -64 -65 c-35
-35 -67 -62 -71 -60 -4 3 -30 32 -59 65 l-52 60 34 0 c27 -1 39 -8 67 -45z
m926 -45 c63 -81 85 -103 85 -84 0 4 -26 36 -58 73 -92 106 -90 101 -51 101
30 -1 40 -9 88 -71 29 -39 56 -68 59 -64 6 5 -2 16 -66 94 l-34 41 30 0 c23 0
38 -10 66 -45 21 -25 42 -45 47 -45 6 0 -6 20 -27 45 l-36 45 30 0 c21 0 37
-8 50 -25 11 -13 22 -21 26 -18 3 4 -1 15 -11 25 -15 17 -14 18 25 18 23 0 42
-1 42 -3 0 -1 -49 -51 -108 -110 l-109 -109 -97 111 -97 111 38 0 c36 -1 42
-6 108 -90z"/>
<path d="M4592 1284 c62 -75 114 -131 116 -125 3 9 -213 261 -224 261 -2 0 47
-61 108 -136z"/>
<path d="M3381 1385 c61 -79 232 -275 237 -270 3 3 -6 18 -19 33 -14 15 -65
72 -114 127 -91 104 -134 149 -104 110z"/>
<path d="M7646 1390 c21 -30 196 -240 200 -240 15 0 -8 31 -92 126 -100 113
-127 141 -108 114z"/>
<path d="M8600 1396 c0 -2 8 -10 18 -17 15 -13 16 -12 3 4 -13 16 -21 21 -21
13z"/>
<path d="M1381 1375 c23 -29 170 -208 180 -219 5 -5 12 -7 15 -3 6 5 -132 167
-189 222 l-21 20 15 -20z"/>
<path d="M2377 1332 c26 -31 79 -94 117 -140 38 -45 74 -82 79 -82 12 0 3 11
-127 158 -115 128 -152 163 -69 64z"/>
<path d="M6611 1375 c14 -18 161 -197 181 -219 4 -5 11 -7 14 -3 6 5 -132 167
-189 222 l-21 20 15 -20z"/>
<path d="M346 1360 c11 -14 56 -67 98 -118 43 -51 81 -91 83 -88 6 6 -155 194
-184 217 -13 10 -12 6 3 -11z"/>
<path d="M4531 1258 c128 -154 127 -153 135 -145 6 5 -222 267 -233 267 -2 0
42 -55 98 -122z"/>
<path d="M5581 1356 c53 -70 172 -206 177 -202 2 3 -16 29 -40 58 -54 63 -160
174 -137 144z"/>
<path d="M1317 1348 c11 -13 60 -70 108 -128 83 -99 105 -121 105 -105 0 9
-220 255 -228 255 -3 0 4 -10 15 -22z"/>
<path d="M9696 1338 c15 -20 30 -35 33 -32 3 2 -10 19 -28 37 l-34 32 29 -37z"/>
<path d="M8731 1240 c103 -121 119 -138 119 -123 0 9 -208 243 -216 243 -3 0
41 -54 97 -120z"/>
<path d="M6567 1328 c16 -20 171 -205 180 -217 2 -2 6 -2 9 2 6 6 -193 237
-204 237 -3 0 4 -10 15 -22z"/>
<path d="M301 1316 c49 -66 173 -206 181 -206 6 0 -8 21 -31 48 -48 57 -173
187 -150 158z"/>
<path d="M2305 1320 c10 -11 20 -20 23 -20 3 0 -3 9 -13 20 -10 11 -20 20 -23
20 -3 0 3 -9 13 -20z"/>
<path d="M7536 1321 c28 -42 197 -231 202 -227 2 3 -31 45 -74 92 -106 117
-141 153 -128 135z"/>
<path d="M1350 1213 c56 -68 106 -123 112 -123 13 0 -33 56 -133 160 l-81 85
102 -122z"/>
<path d="M4416 1300 c64 -82 177 -210 182 -205 4 4 -57 75 -171 199 -30 32
-33 33 -11 6z"/>
<path d="M5566 1275 c94 -117 137 -165 146 -165 11 0 -44 67 -132 160 l-62 65
48 -60z"/>
<path d="M9667 1271 c26 -33 52 -60 56 -60 5 -1 -14 26 -43 59 -67 77 -76 78
-13 1z"/>
<path d="M6511 1295 c66 -84 172 -205 181 -205 5 0 -8 21 -31 48 -57 66 -178
193 -150 157z"/>
<path d="M7707 1218 c48 -60 91 -108 96 -108 15 0 -13 35 -98 125 l-86 90 88
-107z"/>
<path d="M3451 1203 c52 -62 97 -113 102 -113 11 0 -36 57 -124 150 -66 70
-65 68 22 -37z"/>
<path d="M8680 1205 c50 -60 96 -111 101 -113 24 -9 0 21 -92 118 l-101 105
92 -110z"/>
<path d="M5481 1276 c35 -46 153 -181 161 -184 23 -10 -1 22 -85 109 -51 52
-85 86 -76 75z"/>
<path d="M1238 1245 c64 -79 141 -161 141 -150 0 6 -41 53 -91 105 -50 52 -73
73 -50 45z"/>
<path d="M2405 1203 c80 -96 105 -121 105 -107 0 5 -41 52 -91 104 l-91 95 77
-92z"/>
<path d="M6504 1203 c80 -95 106 -122 106 -107 -1 5 -42 52 -92 104 l-91 95
77 -92z"/>
<path d="M9629 1219 c63 -78 113 -129 95 -98 -5 9 -42 52 -83 95 l-74 79 62
-76z"/>
<path d="M3352 1221 c85 -103 117 -137 117 -126 1 6 -38 51 -85 100 -65 68
-73 75 -32 26z"/>
<path d="M8609 1187 c46 -53 86 -95 89 -92 5 4 -124 151 -155 176 -10 8 20
-30 66 -84z"/>
<path d="M5476 1180 c42 -50 79 -88 82 -85 5 4 -145 175 -155 175 -2 0 30 -41
73 -90z"/>
<path d="M2341 1178 c41 -49 78 -88 82 -88 11 0 -60 84 -114 135 -26 25 -15 7
32 -47z"/>
<path d="M7571 1178 c41 -49 78 -88 82 -88 11 0 -60 84 -114 135 -26 25 -15 7
32 -47z"/>
<path d="M337 1170 c37 -44 72 -80 76 -80 4 0 2 8 -5 19 -20 28 -126 141 -133
141 -3 0 24 -36 62 -80z"/>
<path d="M1191 1202 c80 -97 98 -117 98 -107 0 6 -32 44 -71 85 -47 50 -56 57
-27 22z"/>
<path d="M4439 1172 c35 -40 68 -75 75 -79 19 -12 -50 70 -95 112 -31 29 -26
20 20 -33z"/>
<path d="M6419 1205 c53 -69 101 -120 100 -110 0 6 -30 42 -66 80 -36 39 -52
52 -34 30z"/>
<path d="M8527 1185 c28 -33 61 -69 74 -80 33 -29 -53 74 -92 110 -21 19 -14
7 18 -30z"/>
<path d="M3275 1210 c10 -11 20 -20 23 -20 3 0 -3 9 -13 20 -10 11 -20 20 -23
20 -3 0 3 -9 13 -20z"/>
<path d="M5398 1174 c28 -34 59 -67 69 -75 25 -20 -59 81 -93 111 -16 14 -5
-2 24 -36z"/>
<path d="M2275 1157 c32 -37 60 -65 63 -62 4 3 -23 34 -58 68 l-63 62 58 -68z"/>
<path d="M4365 1157 c32 -37 60 -65 63 -62 4 3 -23 34 -58 68 l-63 62 58 -68z"/>
<path d="M7505 1157 c32 -37 60 -65 63 -62 4 3 -23 34 -58 68 l-63 62 58 -68z"/>
<path d="M9606 1148 c27 -31 51 -55 53 -52 3 3 -19 28 -49 57 l-53 52 49 -57z"/>
<path d="M2200 1142 c24 -28 46 -50 49 -47 3 3 -17 27 -44 53 l-48 47 43 -53z"/>
<path d="M3228 1163 c11 -16 33 -39 48 -53 16 -14 9 -2 -16 28 -46 56 -64 70
-32 25z"/>
<path d="M7430 1142 c24 -28 46 -50 49 -47 3 3 -17 27 -44 53 l-48 47 43 -53z"/>
<path d="M8458 1163 c11 -16 33 -39 48 -53 17 -15 12 -5 -15 28 -45 55 -66 71
-33 25z"/>
<path d="M3335 1140 c21 -22 41 -40 44 -40 3 0 -13 18 -34 40 -21 22 -41 40
-44 40 -3 0 13 -18 34 -40z"/>
<path d="M4295 1140 c21 -22 41 -40 44 -40 3 0 -13 18 -34 40 -21 22 -41 40
-44 40 -3 0 13 -18 34 -40z"/>
<path d="M9525 1140 c21 -22 41 -40 44 -40 3 0 -13 18 -34 40 -21 22 -41 40
-44 40 -3 0 13 -18 34 -40z"/>
<path d="M1160 1135 c19 -19 36 -35 39 -35 3 0 -10 16 -29 35 -19 19 -36 35
-39 35 -3 0 10 -16 29 -35z"/>
<path d="M6390 1135 c19 -19 36 -35 39 -35 3 0 -10 16 -29 35 -19 19 -36 35
-39 35 -3 0 10 -16 29 -35z"/>
<path d="M278 1145 c13 -25 52 -62 52 -48 0 5 -14 22 -31 39 -23 21 -29 23
-21 9z"/>
<path d="M2130 1125 c13 -14 26 -25 28 -25 3 0 -5 11 -18 25 -13 14 -26 25
-28 25 -3 0 5 -11 18 -25z"/>
<path d="M4220 1125 c13 -14 26 -25 28 -25 3 0 -5 11 -18 25 -13 14 -26 25
-28 25 -3 0 5 -11 18 -25z"/>
<path d="M7360 1125 c13 -14 26 -25 28 -25 3 0 -5 11 -18 25 -13 14 -26 25
-28 25 -3 0 5 -11 18 -25z"/>
<path d="M1085 1120 c10 -11 20 -20 23 -20 3 0 -3 9 -13 20 -10 11 -20 20 -23
20 -3 0 3 -9 13 -20z"/>
<path d="M6315 1120 c10 -11 20 -20 23 -20 3 0 -3 9 -13 20 -10 11 -20 20 -23
20 -3 0 3 -9 13 -20z"/>
<path d="M9455 1120 c10 -11 20 -20 23 -20 3 0 -3 9 -13 20 -10 11 -20 20 -23
20 -3 0 3 -9 13 -20z"/>
<path d="M3185 1110 c10 -11 20 -20 23 -20 3 0 -3 9 -13 20 -10 11 -20 20 -23
20 -3 0 3 -9 13 -20z"/>
<path d="M5365 1110 c10 -11 20 -20 23 -20 3 0 -3 9 -13 20 -10 11 -20 20 -23
20 -3 0 3 -9 13 -20z"/>
<path d="M8415 1110 c10 -11 20 -20 23 -20 3 0 -3 9 -13 20 -10 11 -20 20 -23
20 -3 0 3 -9 13 -20z"/>
<path d="M5270 1116 c0 -2 8 -10 18 -17 15 -13 16 -12 3 4 -13 16 -21 21 -21
13z"/>
<path d="M0 400 l0 -400 5000 0 5000 0 0 400 0 400 -5000 0 -5000 0 0 -400z
m2192 123 c23 -20 23 -57 1 -74 -15 -11 -16 -11 -5 1 27 31 11 72 -33 83 -19
4 -19 5 -1 6 11 0 28 -6 38 -16z m-69 -8 c-3 -9 -8 -14 -10 -11 -3 3 -2 9 2
15 9 16 15 13 8 -4z m-1760 -114 c22 -61 43 -108 47 -104 4 4 24 56 45 116 21
59 42 107 47 107 11 0 9 -5 -42 -149 -23 -64 -44 -107 -53 -109 -15 -3 -17 0
-67 143 -15 44 -31 88 -36 99 -5 13 -3 17 6 14 8 -2 32 -55 53 -117z m517 89
c0 -23 4 -30 20 -30 11 0 20 -4 20 -10 0 -5 -10 -10 -21 -10 -20 0 -21 -4 -17
-71 3 -55 8 -74 23 -85 10 -8 16 -16 13 -19 -11 -11 -40 8 -49 32 -12 33 -12
223 1 223 6 0 10 -13 10 -30z m520 15 c19 -10 27 -20 24 -30 -5 -13 -9 -13
-34 0 -36 18 -61 19 -84 2 -28 -21 -9 -45 49 -62 87 -25 108 -74 54 -127 -29
-29 -33 -30 -90 -25 -68 6 -72 8 -64 29 5 13 12 14 40 5 50 -15 100 1 100 33
0 17 -8 28 -24 35 -103 42 -120 60 -107 109 11 43 82 59 136 31z m100 -15 c0
-25 4 -30 25 -30 16 0 25 -6 25 -15 0 -9 -9 -15 -25 -15 -25 0 -26 -1 -23 -62
3 -54 6 -64 26 -73 12 -5 22 -13 22 -18 0 -17 -31 -18 -55 -3 -24 16 -25 20
-25 131 0 96 3 115 15 115 10 0 15 -10 15 -30z m482 -30 l3 -61 35 30 c19 17
44 30 55 31 16 0 12 -7 -20 -40 l-39 -40 42 -60 c40 -57 41 -60 20 -60 -16 0
-32 14 -53 45 -16 25 -33 45 -37 45 -5 0 -8 -20 -8 -45 0 -38 -3 -45 -20 -45
-19 0 -20 7 -20 130 0 122 1 130 20 130 16 0 19 -8 22 -60z m193 28 c1 -20 -2
-24 -11 -17 -8 7 -14 6 -17 -3 -3 -7 -6 2 -6 20 -1 27 3 33 17 30 11 -2 17
-13 17 -30z m-44 -35 c13 -16 12 -17 -3 -4 -17 13 -22 21 -14 21 2 0 10 -8 17
-17z m-1504 -15 c12 -13 23 -36 25 -53 l3 -30 -67 -3 c-75 -3 -85 -15 -47 -53
17 -17 30 -20 65 -16 43 4 59 -5 28 -17 -45 -17 -106 3 -123 41 -44 96 50 202
116 131z m193 12 c17 -11 10 -13 -40 -10 -47 2 -75 -28 -75 -80 0 -55 26 -80
82 -80 27 0 42 -4 38 -10 -9 -15 -78 -12 -102 5 -50 35 -50 135 0 170 24 17
74 20 97 5z m271 -19 c23 -23 29 -38 29 -71 0 -33 -6 -48 -29 -71 -40 -40 -82
-39 -123 1 -28 28 -30 36 -25 78 10 87 89 121 148 63z m79 13 c0 -14 2 -14 22
0 24 17 38 20 38 9 0 -5 -14 -16 -30 -25 -29 -17 -30 -19 -30 -93 0 -43 -4
-75 -10 -75 -6 0 -10 40 -10 100 0 60 4 100 10 100 6 0 10 -7 10 -16z m545 -9
c20 -19 25 -34 25 -75 0 -63 -30 -100 -82 -100 -67 0 -107 62 -87 135 18 66
97 88 144 40z m190 5 c0 -9 -8 -14 -20 -13 -38 5 -63 -7 -74 -35 -24 -57 12
-111 64 -98 27 7 45 -12 24 -25 -50 -32 -129 20 -129 85 0 72 34 107 100 103
24 -1 35 -7 35 -17z m5384 -83 c8 -26 17 -47 21 -47 4 0 13 21 21 47 8 25 20
48 26 50 8 3 4 -21 -11 -64 -13 -38 -29 -68 -36 -68 -7 0 -23 30 -36 68 -15
43 -19 67 -11 64 6 -2 18 -25 26 -50z m638 38 c2 -6 -9 -11 -23 -10 -38 0 -40
-20 -5 -35 69 -28 36 -101 -33 -74 -27 10 -18 22 17 20 38 -1 43 19 8 37 -36
18 -48 42 -31 62 14 17 61 17 67 0z m333 -20 c0 -35 16 -47 26 -20 4 8 13 15
22 15 13 0 13 -3 -2 -19 -16 -18 -16 -21 -1 -50 19 -38 8 -40 -22 -3 l-22 27
-1 -27 c0 -16 -4 -28 -10 -28 -6 0 -10 30 -10 70 0 40 4 70 10 70 6 0 10 -16
10 -35z m580 32 c0 -4 -34 -104 -45 -136 -3 -8 -8 -11 -11 -8 -8 7 38 147 48
147 4 0 8 -2 8 -3z m70 -57 c0 -33 4 -60 10 -60 6 0 10 -4 10 -10 0 -5 -13
-10 -30 -10 -16 0 -30 5 -30 10 0 6 5 10 10 10 6 0 10 20 10 45 0 38 -2 43
-17 38 -16 -6 -16 -4 1 15 29 34 36 27 36 -38z m124 38 c44 -63 -17 -154 -68
-102 -9 9 -16 32 -16 54 0 64 52 94 84 48z m126 17 c0 -6 -60 -127 -66 -134
-2 -2 -7 -2 -10 1 -3 3 6 29 20 57 14 28 26 53 26 56 0 3 -13 5 -30 5 -16 0
-30 5 -30 10 0 6 20 10 45 10 25 0 45 -2 45 -5z m92 -47 c2 -29 2 -61 0 -70
-5 -22 -22 -24 -22 -3 0 10 -10 15 -30 15 -16 0 -30 3 -30 6 0 16 56 104 67
104 6 0 13 -22 15 -52z m128 47 c0 -6 -60 -127 -66 -134 -2 -2 -7 -2 -10 1 -3
3 6 29 20 57 14 28 26 53 26 56 0 3 -13 5 -30 5 -16 0 -30 5 -30 10 0 6 20 10
45 10 25 0 45 -2 45 -5z m87 -7 c14 -23 12 -106 -2 -118 -33 -27 -86 8 -70 46
4 11 7 27 6 37 -5 38 47 64 66 35z m123 2 c0 -5 -11 -10 -25 -10 -32 0 -32
-16 -1 -24 27 -7 41 -35 31 -65 -7 -23 -37 -35 -65 -26 -31 10 -24 23 13 21
28 -1 32 2 32 24 0 21 -4 25 -30 24 -29 -1 -30 0 -27 32 4 31 7 34 38 34 19 0
34 -4 34 -10z m102 -7 c39 -35 8 -122 -44 -123 -10 0 -18 5 -18 10 0 6 9 10
20 10 10 0 24 10 31 22 10 18 9 20 -6 15 -24 -10 -55 10 -55 36 0 44 38 61 72
30z m-2062 -28 c9 -10 9 -15 1 -15 -15 0 -14 -57 2 -63 6 -2 9 -7 6 -11 -15
-17 -37 8 -41 47 -7 58 5 74 32 42z m360 0 c9 -10 9 -15 1 -15 -15 0 -14 -57
2 -63 6 -2 9 -7 6 -11 -15 -17 -37 8 -41 47 -7 58 5 74 32 42z m-532 -7 c23
-23 13 -38 -24 -38 -46 0 -41 -23 7 -30 27 -4 30 -7 16 -13 -28 -11 -44 -9
-61 9 -32 31 -14 84 29 84 12 0 26 -5 33 -12z m109 5 c14 -6 10 -9 -17 -13
-29 -4 -35 -9 -35 -30 0 -21 5 -26 33 -28 36 -4 34 -22 -3 -22 -28 0 -55 24
-55 50 0 22 25 50 45 50 7 0 22 -3 32 -7z m177 -9 c21 -20 20 -43 -1 -66 -20
-22 -46 -23 -67 -2 -31 30 -9 84 34 84 10 0 26 -7 34 -16z m86 6 c0 -4 -7 -10
-15 -14 -9 -3 -15 -19 -15 -41 0 -19 -4 -35 -10 -35 -5 0 -10 22 -10 49 0 45
2 49 25 49 14 0 25 -4 25 -8z m274 -6 c21 -20 20 -43 -1 -66 -20 -22 -46 -23
-67 -2 -31 30 -9 84 34 84 10 0 26 -7 34 -16z m113 9 c14 -6 10 -9 -17 -13
-29 -4 -35 -9 -35 -30 0 -21 5 -26 33 -28 36 -4 34 -22 -3 -22 -28 0 -55 24
-55 50 0 22 25 50 45 50 7 0 22 -3 32 -7z m250 0 c14 -6 10 -9 -17 -13 -29 -4
-35 -9 -35 -30 0 -21 6 -26 35 -30 27 -4 31 -7 17 -13 -10 -4 -25 -7 -32 -7
-20 0 -45 28 -45 50 0 22 25 50 45 50 7 0 22 -3 32 -7z m107 -9 c31 -30 9 -84
-34 -84 -24 0 -50 26 -50 50 0 24 26 50 50 50 10 0 26 -7 34 -16z m113 4 c7
-5 14 -5 18 2 10 16 42 12 49 -6 10 -25 7 -84 -4 -84 -5 0 -10 18 -10 41 0 33
-3 40 -17 37 -13 -2 -19 -14 -21 -41 -4 -50 -22 -47 -22 4 0 36 -2 40 -22 37
-19 -2 -24 -10 -26 -40 -5 -55 -22 -46 -22 10 0 48 0 49 33 49 17 0 37 -4 44
-9z m-327 -78 c0 -5 -4 -10 -10 -10 -5 0 -10 5 -10 10 0 6 5 10 10 10 6 0 10
-4 10 -10z"/>
<path d="M2150 500 c0 -5 5 -10 10 -10 6 0 10 5 10 10 0 6 -4 10 -10 10 -5 0
-10 -4 -10 -10z"/>
<path d="M536 418 c-28 -39 -21 -48 39 -48 59 0 67 9 45 51 -15 27 -64 25 -84
-3z"/>
<path d="M986 424 c-50 -50 -21 -144 44 -144 48 0 80 50 66 104 -13 53 -75 75
-110 40z"/>
<path d="M1616 408 c-32 -46 -8 -118 39 -118 28 0 55 34 55 70 0 36 -27 70
-55 70 -13 0 -31 -10 -39 -22z"/>
<path d="M8974 365 c-9 -38 3 -75 26 -75 13 0 22 9 26 25 9 38 -3 75 -26 75
-13 0 -22 -9 -26 -25z"/>
<path d="M9207 350 c-18 -29 -18 -30 2 -30 17 0 21 6 21 30 0 17 -1 30 -3 30
-1 0 -11 -13 -20 -30z"/>
<path d="M9422 374 c2 -11 11 -20 22 -22 13 -3 17 1 14 14 -2 11 -11 20 -22
22 -13 3 -17 -1 -14 -14z"/>
<path d="M9414 325 c-8 -21 10 -39 30 -32 22 9 20 24 -4 37 -16 9 -22 8 -26
-5z"/>
<path d="M9644 375 c-7 -18 3 -35 21 -35 18 0 26 15 19 34 -8 20 -33 21 -40 1z"/>
<path d="M7405 340 c-4 -6 5 -10 19 -10 14 0 26 5 26 10 0 6 -9 10 -19 10 -11
0 -23 -4 -26 -10z"/>
<path d="M7684 336 c-10 -26 4 -48 28 -44 17 2 23 10 23 28 0 18 -6 26 -23 28
-13 2 -25 -3 -28 -12z"/>
<path d="M8044 336 c-10 -26 4 -48 28 -44 17 2 23 10 23 28 0 18 -6 26 -23 28
-13 2 -25 -3 -28 -12z"/>
<path d="M8514 336 c-10 -26 4 -48 28 -44 17 2 23 10 23 28 0 18 -6 26 -23 28
-13 2 -25 -3 -28 -12z"/>
</g>
</svg>
